# Max2Obj Version 4.0 Mar 10th, 2001
#
# object objobjDuplicate01 to come ...
#
v  -5.000000 -4.999466 5.000000
v  5.000000 -4.999466 5.000000
v  -5.000008 -4.999466 0.949993
v  4.999992 -4.999466 0.949993
v  -5.000000 -2.999466 1.250000
v  5.000000 -2.999466 1.250000
v  -5.000000 -2.999466 -5.000000
v  5.000000 -3.000000 -5.000000
v  -5.000008 -3.999466 0.949993
v  5.000000 -3.999466 1.250000
v  -5.000000 -3.999466 1.250000
v  4.999992 -3.999466 0.949993
v  -5.000000 4.500534 -5.000000
v  5.000000 4.500198 -5.000000
v  -5.000000 4.500534 1.500000
v  5.000000 4.500534 1.500000
v  -5.000000 5.000534 3.500000
v  5.000000 5.000534 3.500000
v  -0.847000 -3.112692 -5.703060
v  0.847000 4.594543 -5.703060
v  0.847000 -3.112686 -5.703060
v  -0.847000 4.594547 -5.703060
v  0.847000 4.594543 -4.009060
v  -0.847000 -3.112692 -4.009060
v  0.847000 -3.112686 -4.009060
v  -0.847000 4.594547 -4.009060
v  -5.000000 5.000534 5.000000
v  5.000000 5.000535 5.000001
# 28 vertices

vt  0.010000 0.484181 0.000000
vt  0.010000 0.010000 0.000000
vt  0.318218 0.484181 0.000000
vt  0.318218 0.010000 0.000000
vt  0.507909 0.515819 0.000000
vt  0.873372 0.596145 0.000000
vt  0.881281 0.225772 0.000000
vt  0.515819 0.306098 0.000000
vt  0.413054 0.484181 0.000000
vt  0.873371 0.627782 0.000000
vt  0.507909 0.627782 0.000000
vt  0.873371 0.708109 0.000000
vt  0.507909 0.708109 0.000000
vt  0.010000 0.916236 0.000000
vt  0.375463 0.916236 0.000000
vt  0.010000 0.835910 0.000000
vt  0.375463 0.835910 0.000000
vt  0.507910 0.596145 0.000000
vt  0.873372 0.515819 0.000000
vt  0.990000 0.337736 0.000000
vt  0.515819 0.337736 0.000000
vt  0.515819 0.385154 0.000000
vt  0.990000 0.385154 0.000000
vt  0.990000 0.202044 0.000000
vt  0.515819 0.202044 0.000000
vt  0.990000 0.010000 0.000000
vt  0.515819 0.010000 0.000000
vt  0.990000 0.423107 0.000000
vt  0.515819 0.408882 0.000000
vt  0.990000 0.408882 0.000000
vt  0.515819 0.423107 0.000000
vt  0.982090 0.787164 0.000000
vt  0.507909 0.787164 0.000000
vt  0.982090 0.739746 0.000000
vt  0.507909 0.739746 0.000000
vt  0.484181 0.812182 0.000000
vt  0.010000 0.812182 0.000000
vt  0.484181 0.515819 0.000000
vt  0.010000 0.515819 0.000000
vt  0.413054 0.010000 0.000000
vt  0.484181 0.484181 0.000000
vt  0.484181 0.010000 0.000000
vt  0.515819 0.225772 0.000000
vt  0.881281 0.306098 0.000000
# 44 texture vertices

vn  0.000000 1.000000 0.000000
vn  0.000000 1.000000 0.000000
vn  0.000000 0.707106 0.707107
vn  0.000000 0.707107 0.707106
vn  0.000000 0.707107 0.707107
vn  0.000024 0.707126 0.707087
vn  0.000019 1.000000 -0.000030
vn  0.000053 1.000000 -0.000085
vn  0.000000 -0.707101 0.707113
vn  0.000000 -0.707101 0.707113
vn  0.000000 -0.707113 0.707101
vn  0.000000 -0.707113 0.707101
vn  -0.000034 -1.000000 0.000000
vn  -0.000012 -1.000000 0.000033
vn  -0.000011 -0.992506 0.122193
vn  0.000000 -0.992504 0.122209
vn  0.000000 -0.992508 0.122183
vn  0.000000 -0.992508 0.122184
vn  -0.707108 0.000000 -0.707106
vn  0.707106 0.000000 -0.707107
vn  0.707106 0.000000 -0.707108
vn  -0.707107 0.000000 -0.707106
vn  0.707106 0.000000 0.707107
vn  -0.707108 0.000000 0.707106
vn  0.707106 0.000000 0.707107
vn  -0.707107 0.000000 0.707106
vn  0.000000 -1.000000 0.000000
vn  0.000000 -1.000000 0.000001
# 28 vertex normals

g objobjDuplicate01
s 1
f 1/24/1 2/25/2 3/26/3
f 4/27/4 3/26/3 2/25/2
f 5/36/5 6/37/6 7/38/7
f 8/39/8 7/38/7 6/37/6
f 9/28/9 10/29/10 11/30/11
f 10/29/10 9/28/9 12/31/12
f 13/1/13 14/2/14 15/3/15
f 16/4/16 15/3/15 14/2/14
f 17/9/17 15/3/15 16/4/16
f 16/4/16 18/40/18 17/9/17
f 6/21/6 11/23/11 10/22/10
f 6/21/6 5/20/5 11/23/11
f 12/35/12 9/34/9 3/32/3
f 3/32/3 4/33/4 12/35/12
f 19/5/19 20/6/20 21/18/21
f 20/6/20 19/5/19 22/19/22
f 23/7/23 24/8/24 25/43/25
f 24/8/24 23/7/23 26/44/26
f 24/16/24 22/15/22 19/14/19
f 22/15/22 24/16/24 26/17/26
f 21/11/21 20/10/20 25/13/25
f 20/10/20 23/12/23 25/13/25
f 28/42/28 27/41/27 17/9/17
f 28/42/28 17/9/17 18/40/18
# 24 faces

g
