# Max2Obj Version 4.0 Mar 10th, 2001
#
# object objobjDuplicate18 to come ...
#
v  -5.000000 -4.999464 -5.000000
v  5.000000 -5.000000 5.000000
v  5.000000 -4.999464 -5.000000
v  -5.000000 -5.000000 5.000000
v  5.000000 5.000534 -5.000000
v  -5.000000 5.000198 5.000000
v  -5.000000 5.000534 -5.000000
v  5.000000 5.000198 5.000000
# 8 vertices

vt  0.496559 0.010000 0.000000
vt  0.010000 0.496559 0.000000
vt  0.010000 0.010000 0.000000
vt  0.496559 0.496559 0.000000
vt  0.010000 0.990000 0.000000
vt  0.496559 0.503440 0.000000
vt  0.496559 0.990000 0.000000
vt  0.010000 0.503440 0.000000
# 8 texture vertices

vn  0.000000 1.000000 0.000054
vn  0.000000 1.000000 0.000054
vn  0.000000 1.000000 0.000054
vn  0.000000 1.000000 0.000054
vn  0.000000 -1.000000 -0.000034
vn  0.000000 -1.000000 -0.000034
vn  0.000000 -1.000000 -0.000034
vn  0.000000 -1.000000 -0.000034
# 8 vertex normals

g objobjDuplicate18
s 4
f 1/5/1 2/6/2 3/7/3
f 2/6/2 1/5/1 4/8/4
f 5/1/5 6/2/6 7/3/7
f 6/2/6 5/1/5 8/4/8
# 4 faces

g
