# 3ds Max Wavefront OBJ Exporter v0.97b - (c)2007 guruware
# File Created: 15.06.2011 16:09:34

mtllib 25.mtl

#
# object objobjobjRegroup09
#

v  -5.7500 5.0002 5.0000
v  -5.7500 5.0005 -5.0000
v  -5.5000 4.0002 5.0000
v  -5.5000 4.0005 -5.0000
v  -5.0000 -3.9998 5.0000
v  -5.0000 -3.9995 -5.0000
v  -5.0000 -4.9998 5.0000
v  -5.0000 -4.9995 -5.0000
v  5.0000 5.0002 5.0000
v  5.0000 5.0005 -5.0000
v  5.0000 4.0005 -5.0000
v  5.0000 4.0002 5.0000
v  5.0000 -3.9998 5.0000
v  5.0000 -3.9995 -5.0000
v  -3.5000 3.0005 -3.0000
v  -4.5000 3.0005 -3.0000
v  -3.5000 -1.9995 -3.0000
v  -4.5000 -1.9995 -3.0000
v  -3.5000 -1.9995 3.0000
v  -4.5000 3.0005 3.0000
v  -3.5000 3.0005 3.0000
v  -4.5000 -1.9995 3.0000
v  -4.5000 -3.9995 -5.0000
v  -4.5000 -3.9998 5.0000
v  -4.5000 4.0005 -5.0000
v  -4.5000 4.0002 5.0000
v  -3.5000 4.0005 5.0000
v  -3.5000 -3.9995 5.0000
v  -3.5000 -3.9995 -5.0000
v  -3.5000 4.0005 -5.0000
v  -4.4950 0.3614 -3.0148
v  -4.4900 0.3614 3.0292
v  -4.4950 0.7084 3.0138
v  -4.4900 0.7039 -3.0146
v  -4.4849 3.9879 -0.1795
v  -4.4849 -2.0560 -0.1690
v  -4.4849 -2.0400 0.1780
v  -4.4849 3.9883 0.1630
# 38 vertices

vn -0.7882 0.6154 0.0000
vn -0.7882 0.6154 0.0000
vn -0.6154 -0.7882 -0.0000
vn -0.6154 -0.7882 -0.0000
vn -0.7882 0.6154 0.0000
vn -0.6154 -0.7882 -0.0000
vn -0.7071 0.7071 0.0000
vn -0.7071 0.7071 0.0000
vn -1.0000 0.0000 -0.0000
vn -1.0000 0.0000 -0.0000
vn -0.7071 0.7071 0.0000
vn -1.0000 0.0000 -0.0000
vn -0.7882 0.6154 0.0000
vn -0.0000 1.0000 0.0000
vn -0.0000 1.0000 0.0000
vn -0.0000 1.0000 0.0000
vn -0.7882 0.6154 0.0000
vn -0.7882 0.6154 0.0000
vn -0.6154 -0.7882 -0.0000
vn -0.6154 -0.7882 -0.0000
vn 0.0000 -1.0000 -0.0000
vn 0.0000 -1.0000 -0.0000
vn 0.0000 -1.0000 -0.0000
vn -0.6154 -0.7882 -0.0000
vn -0.7071 0.7071 0.0000
vn 0.0000 1.0000 0.0000
vn 0.0000 1.0000 0.0000
vn 0.0000 1.0000 0.0000
vn -0.7071 0.7071 0.0000
vn -0.7071 0.7071 0.0000
vn 0.9045 -0.3015 0.3015
vn -0.9045 -0.3015 0.3015
vn 0.9045 0.3015 0.3015
vn -0.9045 0.3015 0.3015
vn 0.9045 0.3015 0.3015
vn -0.9045 -0.3015 0.3015
vn 0.9045 0.3015 -0.3015
vn -0.9045 -0.3015 -0.3015
vn 0.9045 -0.3015 -0.3015
vn -0.9045 -0.3015 -0.3015
vn 0.9045 0.3015 -0.3015
vn -0.9045 0.3015 -0.3015
vn -0.9045 0.3015 0.3015
vn -0.9045 0.3015 -0.3015
vn 0.9045 0.3015 -0.3015
vn 0.9045 0.3015 -0.3015
vn 0.9045 0.3015 0.3015
vn -0.9045 0.3015 0.3015
vn 0.9045 -0.3015 -0.3015
vn -0.9045 -0.3015 -0.3015
vn -0.9045 -0.3015 0.3015
vn -0.9045 -0.3015 0.3015
vn 0.9045 -0.3015 0.3015
vn 0.9045 -0.3015 -0.3015
vn -1.0000 0.0000 -0.0000
vn -1.0000 0.0000 -0.0000
vn -0.9045 0.3015 -0.3015
vn -0.9045 0.3015 -0.3015
vn -0.9045 0.3015 0.3015
vn -1.0000 0.0000 -0.0000
vn -1.0000 0.0000 -0.0000
vn -0.9045 0.3015 0.3015
vn -1.0000 0.0000 -0.0000
vn -1.0000 0.0000 -0.0000
vn -0.9045 0.3015 0.3015
vn -0.9045 -0.3015 0.3015
vn -0.9045 -0.3015 0.3015
vn -0.9045 -0.3015 -0.3015
vn -1.0000 0.0000 -0.0000
vn -1.0000 0.0000 -0.0000
vn -1.0000 0.0000 -0.0000
vn -0.9045 -0.3015 0.3015
vn -0.9045 0.3015 -0.3015
vn -1.0000 0.0000 -0.0000
vn -1.0000 0.0000 -0.0000
vn -1.0000 0.0000 -0.0000
vn -0.9045 -0.3015 -0.3015
vn -0.9045 0.3015 -0.3015
vn 0.9045 0.3015 -0.3015
vn 0.9045 -0.3015 -0.3015
vn 1.0000 0.0000 0.0000
vn 1.0000 0.0000 0.0000
vn 1.0000 0.0000 0.0000
vn 0.9045 0.3015 -0.3015
vn 0.9045 0.3015 -0.3015
vn 1.0000 0.0000 0.0000
vn 1.0000 0.0000 0.0000
vn 1.0000 0.0000 0.0000
vn 0.9045 0.3015 0.3015
vn 0.9045 0.3015 -0.3015
vn 0.9045 0.3015 0.3015
vn 1.0000 0.0000 0.0000
vn 1.0000 0.0000 0.0000
vn 1.0000 0.0000 0.0000
vn 0.9045 -0.3015 0.3015
vn 0.9045 0.3015 0.3015
vn 0.9045 -0.3015 0.3015
vn 1.0000 0.0000 0.0000
vn 1.0000 0.0000 0.0000
vn 1.0000 0.0000 0.0000
vn 0.9045 -0.3015 -0.3015
vn 0.9045 -0.3015 0.3015
vn -0.7882 0.6154 0.0000
vn -0.7882 0.6154 0.0000
vn -0.6154 -0.7882 -0.0000
vn -0.6154 -0.7882 -0.0000
vn -0.7882 0.6154 0.0000
vn -0.6154 -0.7882 -0.0000
vn -0.7071 0.7071 0.0000
vn -0.7071 0.7071 0.0000
vn -1.0000 0.0000 -0.0000
vn -1.0000 0.0000 -0.0000
vn -0.7071 0.7071 0.0000
vn -1.0000 0.0000 -0.0000
vn -0.7882 0.6154 0.0000
vn -0.0000 1.0000 0.0000
vn -0.0000 1.0000 0.0000
vn -0.0000 1.0000 0.0000
vn -0.7882 0.6154 0.0000
vn -0.7882 0.6154 0.0000
vn -0.6154 -0.7882 -0.0000
vn -0.6154 -0.7882 -0.0000
vn 0.0000 -1.0000 -0.0000
vn 0.0000 -1.0000 -0.0000
vn 0.0000 -1.0000 -0.0000
vn -0.6154 -0.7882 -0.0000
vn -0.7071 0.7071 0.0000
vn 0.0000 1.0000 0.0000
vn 0.0000 1.0000 0.0000
vn 0.0000 1.0000 0.0000
vn -0.7071 0.7071 0.0000
vn -0.7071 0.7071 0.0000
vn 0.9045 -0.3015 0.3015
vn -0.9045 -0.3015 0.3015
vn 0.9045 0.3015 0.3015
vn -0.9045 0.3015 0.3015
vn 0.9045 0.3015 0.3015
vn -0.9045 -0.3015 0.3015
vn 0.9045 0.3015 -0.3015
vn -0.9045 -0.3015 -0.3015
vn 0.9045 -0.3015 -0.3015
vn -0.9045 -0.3015 -0.3015
vn 0.9045 0.3015 -0.3015
vn -0.9045 0.3015 -0.3015
vn -0.9045 0.3015 0.3015
vn -0.9045 0.3015 -0.3015
vn 0.9045 0.3015 -0.3015
vn 0.9045 0.3015 -0.3015
vn 0.9045 0.3015 0.3015
vn -0.9045 0.3015 0.3015
vn 0.9045 -0.3015 -0.3015
vn -0.9045 -0.3015 -0.3015
vn -0.9045 -0.3015 0.3015
vn -0.9045 -0.3015 0.3015
vn 0.9045 -0.3015 0.3015
vn 0.9045 -0.3015 -0.3015
vn -1.0000 0.0000 -0.0000
vn -1.0000 0.0000 -0.0000
vn -0.9045 0.3015 -0.3015
vn -0.9045 0.3015 -0.3015
vn -0.9045 0.3015 0.3015
vn -1.0000 0.0000 -0.0000
vn -1.0000 0.0000 -0.0000
vn -0.9045 0.3015 0.3015
vn -1.0000 0.0000 -0.0000
vn -1.0000 0.0000 -0.0000
vn -0.9045 0.3015 0.3015
vn -0.9045 -0.3015 0.3015
vn -0.9045 -0.3015 0.3015
vn -0.9045 -0.3015 -0.3015
vn -1.0000 0.0000 -0.0000
vn -1.0000 0.0000 -0.0000
vn -1.0000 0.0000 -0.0000
vn -0.9045 -0.3015 0.3015
vn -0.9045 0.3015 -0.3015
vn -1.0000 0.0000 -0.0000
vn -1.0000 0.0000 -0.0000
vn -1.0000 0.0000 -0.0000
vn -0.9045 -0.3015 -0.3015
vn -0.9045 0.3015 -0.3015
vn 0.9045 0.3015 -0.3015
vn 0.9045 -0.3015 -0.3015
vn 1.0000 0.0000 0.0000
vn 1.0000 0.0000 0.0000
vn 1.0000 0.0000 0.0000
vn 0.9045 0.3015 -0.3015
vn 0.9045 0.3015 -0.3015
vn 1.0000 0.0000 0.0000
vn 1.0000 0.0000 0.0000
vn 1.0000 0.0000 0.0000
vn 0.9045 0.3015 0.3015
vn 0.9045 0.3015 -0.3015
vn 0.9045 0.3015 0.3015
vn 1.0000 0.0000 0.0000
vn 1.0000 0.0000 0.0000
vn 1.0000 0.0000 0.0000
vn 0.9045 -0.3015 0.3015
vn 0.9045 0.3015 0.3015
vn 0.9045 -0.3015 0.3015
vn 1.0000 0.0000 0.0000
vn 1.0000 0.0000 0.0000
vn 1.0000 0.0000 0.0000
vn 0.9045 -0.3015 -0.3015
vn 0.9045 -0.3015 0.3015
vn -0.9999 0.0137 -0.0008
vn -0.9999 -0.0144 0.0008
vn -0.9999 -0.0134 0.0008
vn -0.9999 -0.0134 0.0008
vn -0.9999 0.0148 -0.0009
vn -0.9999 0.0137 -0.0008
vn -1.0000 0.0000 -0.0000
vn -1.0000 0.0000 -0.0000
vn -1.0000 0.0000 -0.0000
vn -1.0000 0.0000 -0.0000
vn -1.0000 0.0000 -0.0000
vn -1.0000 0.0000 -0.0000
# 216 vertex normals

vt 0.0100 0.8273 0.0000
vt 0.3647 0.8273 0.0000
vt 0.0100 0.8627 0.0000
vt 0.0100 0.8627 0.0000
vt 0.3647 0.8273 0.0000
vt 0.3647 0.8627 0.0000
vt 0.0100 0.7677 0.0000
vt 0.3647 0.7676 0.0000
vt 0.0100 0.8031 0.0000
vt 0.0100 0.8031 0.0000
vt 0.3647 0.7676 0.0000
vt 0.3647 0.8031 0.0000
vt 0.3913 0.3647 0.0000
vt 0.0100 0.3647 0.0000
vt 0.0100 0.0100 0.0000
vt 0.0100 0.0100 0.0000
vt 0.3913 0.0100 0.0000
vt 0.3913 0.3647 0.0000
vt 0.3824 0.3888 0.0000
vt 0.3824 0.7435 0.0000
vt 0.0100 0.7435 0.0000
vt 0.0100 0.7435 0.0000
vt 0.0100 0.3888 0.0000
vt 0.3824 0.3888 0.0000
vt 0.4154 0.0100 0.0000
vt 0.7701 0.0100 0.0000
vt 0.7701 0.3647 0.0000
vt 0.7701 0.3647 0.0000
vt 0.4154 0.3647 0.0000
vt 0.4154 0.0100 0.0000
vt 0.9555 0.0100 0.0000
vt 0.9555 0.0455 0.0000
vt 0.7782 0.0100 0.0000
vt 0.7782 0.0455 0.0000
vt 0.7782 0.0100 0.0000
vt 0.9555 0.0455 0.0000
vt 0.7854 0.4243 0.0000
vt 0.9627 0.3888 0.0000
vt 0.9627 0.4243 0.0000
vt 0.9627 0.3888 0.0000
vt 0.7854 0.4243 0.0000
vt 0.7854 0.3888 0.0000
vt 0.2228 0.9900 0.0000
vt 0.0100 0.9900 0.0000
vt 0.0100 0.9545 0.0000
vt 0.0100 0.9545 0.0000
vt 0.2228 0.9545 0.0000
vt 0.2228 0.9900 0.0000
vt 0.2228 0.8869 0.0000
vt 0.2228 0.9223 0.0000
vt 0.0100 0.9223 0.0000
vt 0.0100 0.9223 0.0000
vt 0.0100 0.8869 0.0000
vt 0.2228 0.8869 0.0000
vt 0.7612 0.6726 0.0000
vt 0.4066 0.6726 0.0000
vt 0.4775 0.6016 0.0000
vt 0.4775 0.6016 0.0000
vt 0.6903 0.6016 0.0000
vt 0.7612 0.6726 0.0000
vt 0.7612 0.6726 0.0000
vt 0.6903 0.6016 0.0000
vt 0.7612 0.3888 0.0000
vt 0.7612 0.3888 0.0000
vt 0.6903 0.6016 0.0000
vt 0.6903 0.4243 0.0000
vt 0.6903 0.4243 0.0000
vt 0.4775 0.4243 0.0000
vt 0.4066 0.3888 0.0000
vt 0.4066 0.3888 0.0000
vt 0.7612 0.3888 0.0000
vt 0.6903 0.4243 0.0000
vt 0.4775 0.6016 0.0000
vt 0.4066 0.6726 0.0000
vt 0.4066 0.3888 0.0000
vt 0.4066 0.3888 0.0000
vt 0.4775 0.4243 0.0000
vt 0.4775 0.6016 0.0000
vt 0.6903 0.9095 0.0000
vt 0.6903 0.7322 0.0000
vt 0.7612 0.6967 0.0000
vt 0.7612 0.6967 0.0000
vt 0.7612 0.9805 0.0000
vt 0.6903 0.9095 0.0000
vt 0.6903 0.9095 0.0000
vt 0.7612 0.9805 0.0000
vt 0.4066 0.9805 0.0000
vt 0.4066 0.9805 0.0000
vt 0.4775 0.9095 0.0000
vt 0.6903 0.9095 0.0000
vt 0.4775 0.9095 0.0000
vt 0.4066 0.9805 0.0000
vt 0.4066 0.6967 0.0000
vt 0.4066 0.6967 0.0000
vt 0.4775 0.7322 0.0000
vt 0.4775 0.9095 0.0000
vt 0.4775 0.7322 0.0000
vt 0.4066 0.6967 0.0000
vt 0.7612 0.6967 0.0000
vt 0.7612 0.6967 0.0000
vt 0.6903 0.7322 0.0000
vt 0.4775 0.7322 0.0000
vt 0.0100 0.8273 0.0000
vt 0.3647 0.8273 0.0000
vt 0.0100 0.8627 0.0000
vt 0.0100 0.8627 0.0000
vt 0.3647 0.8273 0.0000
vt 0.3647 0.8627 0.0000
vt 0.0100 0.7677 0.0000
vt 0.3647 0.7676 0.0000
vt 0.0100 0.8031 0.0000
vt 0.0100 0.8031 0.0000
vt 0.3647 0.7676 0.0000
vt 0.3647 0.8031 0.0000
vt 0.3913 0.3647 0.0000
vt 0.0100 0.3647 0.0000
vt 0.0100 0.0100 0.0000
vt 0.0100 0.0100 0.0000
vt 0.3913 0.0100 0.0000
vt 0.3913 0.3647 0.0000
vt 0.3824 0.3888 0.0000
vt 0.3824 0.7435 0.0000
vt 0.0100 0.7435 0.0000
vt 0.0100 0.7435 0.0000
vt 0.0100 0.3888 0.0000
vt 0.3824 0.3888 0.0000
vt 0.4154 0.0100 0.0000
vt 0.7701 0.0100 0.0000
vt 0.7701 0.3647 0.0000
vt 0.7701 0.3647 0.0000
vt 0.4154 0.3647 0.0000
vt 0.4154 0.0100 0.0000
vt 0.9555 0.0100 0.0000
vt 0.9555 0.0455 0.0000
vt 0.7782 0.0100 0.0000
vt 0.7782 0.0455 0.0000
vt 0.7782 0.0100 0.0000
vt 0.9555 0.0455 0.0000
vt 0.7854 0.4243 0.0000
vt 0.9627 0.3888 0.0000
vt 0.9627 0.4243 0.0000
vt 0.9627 0.3888 0.0000
vt 0.7854 0.4243 0.0000
vt 0.7854 0.3888 0.0000
vt 0.2228 0.9900 0.0000
vt 0.0100 0.9900 0.0000
vt 0.0100 0.9545 0.0000
vt 0.0100 0.9545 0.0000
vt 0.2228 0.9545 0.0000
vt 0.2228 0.9900 0.0000
vt 0.2228 0.8869 0.0000
vt 0.2228 0.9223 0.0000
vt 0.0100 0.9223 0.0000
vt 0.0100 0.9223 0.0000
vt 0.0100 0.8869 0.0000
vt 0.2228 0.8869 0.0000
vt 0.7612 0.6726 0.0000
vt 0.4066 0.6726 0.0000
vt 0.4775 0.6016 0.0000
vt 0.4775 0.6016 0.0000
vt 0.6903 0.6016 0.0000
vt 0.7612 0.6726 0.0000
vt 0.7612 0.6726 0.0000
vt 0.6903 0.6016 0.0000
vt 0.7612 0.3888 0.0000
vt 0.7612 0.3888 0.0000
vt 0.6903 0.6016 0.0000
vt 0.6903 0.4243 0.0000
vt 0.6903 0.4243 0.0000
vt 0.4775 0.4243 0.0000
vt 0.4066 0.3888 0.0000
vt 0.4066 0.3888 0.0000
vt 0.7612 0.3888 0.0000
vt 0.6903 0.4243 0.0000
vt 0.4775 0.6016 0.0000
vt 0.4066 0.6726 0.0000
vt 0.4066 0.3888 0.0000
vt 0.4066 0.3888 0.0000
vt 0.4775 0.4243 0.0000
vt 0.4775 0.6016 0.0000
vt 0.6903 0.9095 0.0000
vt 0.6903 0.7322 0.0000
vt 0.7612 0.6967 0.0000
vt 0.7612 0.6967 0.0000
vt 0.7612 0.9805 0.0000
vt 0.6903 0.9095 0.0000
vt 0.6903 0.9095 0.0000
vt 0.7612 0.9805 0.0000
vt 0.4066 0.9805 0.0000
vt 0.4066 0.9805 0.0000
vt 0.4775 0.9095 0.0000
vt 0.6903 0.9095 0.0000
vt 0.4775 0.9095 0.0000
vt 0.4066 0.9805 0.0000
vt 0.4066 0.6967 0.0000
vt 0.4066 0.6967 0.0000
vt 0.4775 0.7322 0.0000
vt 0.4775 0.9095 0.0000
vt 0.4775 0.7322 0.0000
vt 0.4066 0.6967 0.0000
vt 0.7612 0.6967 0.0000
vt 0.7612 0.6967 0.0000
vt 0.6903 0.7322 0.0000
vt 0.4775 0.7322 0.0000
vt 0.0000 0.0000 0.0000
vt 4.5240 0.0000 0.0000
vt 4.5240 0.3470 0.0000
vt 4.5240 0.3470 0.0000
vt 0.0000 0.3470 0.0000
vt 0.0000 0.0000 0.0000
vt 0.0000 0.0000 0.0000
vt 4.5240 0.0000 0.0000
vt 4.5240 0.3470 0.0000
vt 4.5240 0.3470 0.0000
vt 0.0000 0.3470 0.0000
vt 0.0000 0.0000 0.0000
# 216 texture coords

g objobjobjRegroup09
usemtl wire_134006006
s 16
f 1/1/1 2/2/2 3/3/3 
f 3/4/4 2/5/5 4/6/6 
f 5/7/7 6/8/8 7/9/9 
f 7/10/10 6/11/11 8/12/12 
f 1/13/13 9/14/14 10/15/15 
f 10/16/16 2/17/17 1/18/18 
f 3/19/19 4/20/20 11/21/21 
f 11/22/22 12/23/23 3/24/24 
f 5/25/25 13/26/26 14/27/27 
f 14/28/28 6/29/29 5/30/30 
f 15/31/31 16/32/32 17/33/33 
f 18/34/34 17/35/35 16/36/36 
f 19/37/37 20/38/38 21/39/39 
f 20/40/40 19/41/41 22/42/42 
f 18/43/43 22/44/44 19/45/45 
f 19/46/46 17/47/47 18/48/48 
f 21/49/49 20/50/50 16/51/51 
f 16/52/52 15/53/53 21/54/54 
f 23/55/55 24/56/56 22/57/57 
f 22/58/58 18/59/59 23/60/60 
f 23/61/61 18/62/62 25/63/63 
f 25/64/64 18/65/65 16/66/66 
f 16/67/67 20/68/68 26/69/69 
f 26/70/70 25/71/71 16/72/72 
f 22/73/73 24/74/74 26/75/75 
f 26/76/76 20/77/77 22/78/78 
f 19/79/79 21/80/80 27/81/81 
f 27/82/82 28/83/83 19/84/84 
f 19/85/85 28/86/86 29/87/87 
f 29/88/88 17/89/89 19/90/90 
f 17/91/91 29/92/92 30/93/93 
f 30/94/94 15/95/95 17/96/96 
f 15/97/97 30/98/98 27/99/99 
f 27/100/100 21/101/101 15/102/102 
f 1/103/103 2/104/104 3/105/105 
f 3/106/106 2/107/107 4/108/108 
f 5/109/109 6/110/110 7/111/111 
f 7/112/112 6/113/113 8/114/114 
f 1/115/115 9/116/116 10/117/117 
f 10/118/118 2/119/119 1/120/120 
f 3/121/121 4/122/122 11/123/123 
f 11/124/124 12/125/125 3/126/126 
f 5/127/127 13/128/128 14/129/129 
f 14/130/130 6/131/131 5/132/132 
f 15/133/133 16/134/134 17/135/135 
f 18/136/136 17/137/137 16/138/138 
f 19/139/139 20/140/140 21/141/141 
f 20/142/142 19/143/143 22/144/144 
f 18/145/145 22/146/146 19/147/147 
f 19/148/148 17/149/149 18/150/150 
f 21/151/151 20/152/152 16/153/153 
f 16/154/154 15/155/155 21/156/156 
f 23/157/157 24/158/158 22/159/159 
f 22/160/160 18/161/161 23/162/162 
f 23/163/163 18/164/164 25/165/165 
f 25/166/166 18/167/167 16/168/168 
f 16/169/169 20/170/170 26/171/171 
f 26/172/172 25/173/173 16/174/174 
f 22/175/175 24/176/176 26/177/177 
f 26/178/178 20/179/179 22/180/180 
f 19/181/181 21/182/182 27/183/183 
f 27/184/184 28/185/185 19/186/186 
f 19/187/187 28/188/188 29/189/189 
f 29/190/190 17/191/191 19/192/192 
f 17/193/193 29/194/194 30/195/195 
f 30/196/196 15/197/197 17/198/198 
f 15/199/199 30/200/200 27/201/201 
f 27/202/202 21/203/203 15/204/204 
s 64
f 31/205/205 32/206/206 33/207/207 
f 33/208/208 34/209/209 31/210/210 
f 35/211/211 36/212/212 37/213/213 
f 37/214/214 38/215/215 35/216/216 
# 72 faces

