# Max2Obj Version 4.0 Mar 10th, 2001
#
# object objobjDuplicate01 to come ...
#
v  3.000000 -4.499466 -5.000000
v  2.187500 4.263023 -5.000000
v  0.000000 3.063034 -5.000000
v  -2.000000 1.000534 -5.000000
v  3.000000 -2.499466 -5.000000
v  -2.000000 -2.499466 -5.000000
v  5.000001 -4.999466 -5.000000
v  5.000000 -4.499466 -3.000000
v  5.000001 4.700523 -5.000000
v  5.000000 4.263023 -2.187500
v  5.000000 3.063034 0.000000
v  5.000000 1.000534 2.000000
v  5.000000 -2.499466 -3.000000
v  5.000000 -2.499466 2.000000
# 14 vertices

vt  0.122376 0.335397 0.000000
vt  0.010000 0.534113 0.000000
vt  0.684255 0.335397 0.000000
vt  0.796631 0.534113 0.000000
vt  0.433256 0.560061 0.000000
vt  0.433256 0.838177 0.000000
vt  0.989488 0.560061 0.000000
vt  0.989488 0.838177 0.000000
vt  0.981502 0.335397 0.000000
vt  0.981502 0.494320 0.000000
vt  0.822579 0.335397 0.000000
vt  0.822579 0.494320 0.000000
vt  0.285378 0.296394 0.000000
vt  0.010000 0.010000 0.000000
vt  0.510086 0.300800 0.000000
vt  0.796480 0.025422 0.000000
vt  0.233486 0.957369 0.000000
vt  0.407309 0.957369 0.000000
vt  0.010000 0.957369 0.000000
vt  0.010000 0.733883 0.000000
vt  0.010000 0.560061 0.000000
vt  0.990000 0.010000 0.000000
vt  0.831077 0.010000 0.000000
vt  0.831077 0.168923 0.000000
# 24 texture vertices

vn  0.652644 0.384853 -0.652644
vn  0.366448 -0.855238 -0.366448
vn  0.543448 -0.639787 -0.543448
vn  0.686860 -0.237587 -0.686860
vn  0.392232 0.832050 -0.392232
vn  0.632456 0.447214 -0.632456
vn  0.235702 0.942809 -0.235702
vn  0.652644 0.384853 -0.652644
vn  0.151923 -0.976647 -0.151923
vn  0.366448 -0.855238 -0.366448
vn  0.543448 -0.639787 -0.543448
vn  0.686860 -0.237587 -0.686860
vn  0.392232 0.832050 -0.392232
vn  0.632456 0.447214 -0.632456
# 14 vertex normals

g objobjDuplicate01
s 1
f 7/23/7 1/22/1 8/24/8
f 8/11/8 1/9/1 5/10/5
f 13/12/13 8/11/8 5/10/5
f 5/13/5 6/14/6 14/16/14
f 14/16/14 13/15/13 5/13/5
f 6/6/6 4/5/4 14/8/14
f 14/8/14 4/5/4 12/7/12
f 12/4/12 4/2/4 3/1/3
f 3/1/3 11/3/11 12/4/12
f 11/21/11 3/18/3 2/17/2
f 2/17/2 10/20/10 11/21/11
f 10/20/10 2/17/2 9/19/9
# 12 faces

g
