# Max2Obj Version 4.0 Mar 10th, 2001
#
# object objobjobjDuplicate01 to come ...
#
v  -5.000000 -4.999466 5.000000
v  5.000000 -4.999466 5.000000
v  -5.000008 -4.999466 0.949993
v  4.999992 -4.999466 0.949993
v  -5.000000 -2.999466 1.250000
v  5.000000 -2.999466 1.250000
v  -5.000000 -2.999466 0.000000
v  5.000000 -3.000000 0.000000
v  -5.000008 -3.999466 0.949993
v  5.000000 -3.999466 1.250000
v  -5.000000 -3.999466 1.250000
v  4.999992 -3.999466 0.949993
v  -5.000000 4.500534 0.000000
v  5.000000 4.500198 0.000000
v  -5.000000 4.500534 1.500000
v  5.000000 4.500534 1.500000
v  -5.000000 5.000534 3.500000
v  5.000000 5.000534 3.500000
v  -5.000000 -3.000003 -5.000000
v  5.000000 4.499998 -5.000000
v  5.000000 -2.999997 -5.000000
v  -5.000000 4.500002 -5.000000
v  5.000000 4.499998 0.000000
v  -5.000000 -3.000003 0.000000
v  5.000000 -2.999996 0.000000
v  -5.000000 4.500002 0.000000
v  -5.000000 5.000534 5.000000
v  5.000000 5.000535 5.000001
# 28 vertices

vt  0.488086 0.631435 0.000000
vt  0.010000 0.631435 0.000000
vt  0.488086 0.559722 0.000000
vt  0.010000 0.559722 0.000000
vt  0.010000 0.010000 0.000000
vt  0.488086 0.368565 0.000000
vt  0.010000 0.894306 0.000000
vt  0.758899 0.655263 0.000000
vt  0.488086 0.464105 0.000000
vt  0.400335 0.655263 0.000000
vt  0.758899 0.894306 0.000000
vt  0.400335 0.894306 0.000000
vt  0.368565 0.894306 0.000000
vt  0.010000 0.655263 0.000000
vt  0.368565 0.655263 0.000000
vt  0.990000 0.227453 0.000000
vt  0.511914 0.227453 0.000000
vt  0.511914 0.275261 0.000000
vt  0.990000 0.275261 0.000000
vt  0.990000 0.203625 0.000000
vt  0.511914 0.203625 0.000000
vt  0.990000 0.010000 0.000000
vt  0.511914 0.010000 0.000000
vt  0.990000 0.313432 0.000000
vt  0.511914 0.299089 0.000000
vt  0.990000 0.299089 0.000000
vt  0.511914 0.313432 0.000000
vt  0.990000 0.523789 0.000000
vt  0.511914 0.523789 0.000000
vt  0.990000 0.475981 0.000000
vt  0.511914 0.475981 0.000000
vt  0.990000 0.452153 0.000000
vt  0.511914 0.452153 0.000000
vt  0.990000 0.392392 0.000000
vt  0.511914 0.392392 0.000000
vt  0.010000 0.464105 0.000000
vt  0.488086 0.392392 0.000000
vt  0.010000 0.392392 0.000000
vt  0.010000 0.368564 0.000000
vt  0.488086 0.010000 0.000000
# 40 texture vertices

vn  0.000000 1.000000 0.000000
vn  0.000000 1.000000 0.000000
vn  0.000000 0.707106 0.707107
vn  0.000000 0.707107 0.707106
vn  0.000000 0.707107 0.707107
vn  0.000035 0.707246 0.706968
vn  0.000004 1.000000 -0.000034
vn  0.000053 1.000000 -0.000427
vn  0.000000 -0.707101 0.707113
vn  0.000000 -0.707101 0.707113
vn  0.000000 -0.707113 0.707101
vn  0.000000 -0.707113 0.707101
vn  -0.000034 -1.000000 0.000000
vn  -0.000003 -1.000000 0.000203
vn  -0.000015 -0.992506 0.122194
vn  0.000000 -0.992494 0.122294
vn  0.000000 -1.523896 0.380974
vn  0.000000 -1.523896 0.380974
vn  -1.000000 0.000000 0.000000
vn  1.000000 0.000000 0.000000
vn  1.000000 0.000000 0.000000
vn  -1.000000 0.000000 0.000000
vn  0.707107 0.000000 0.707107
vn  -0.707107 0.000000 0.707107
vn  0.707107 0.000000 0.707107
vn  -0.707107 0.000000 0.707107
vn  0.000000 -1.000000 0.000000
vn  0.000000 -1.000000 0.000001
# 28 vertex normals

g objobjobjDuplicate01
s 16
f 1/20/1 2/21/2 3/22/3
f 4/23/4 3/22/3 2/21/2
f 5/32/5 6/33/6 7/34/7
f 8/35/8 7/34/7 6/33/6
f 9/24/9 10/25/10 11/26/11
f 10/25/10 9/24/9 12/27/12
f 13/1/13 14/2/14 15/3/15
f 16/4/16 15/3/15 14/2/14
f 17/9/17 15/3/15 16/4/16
f 16/4/16 18/36/18 17/9/17
f 6/17/6 11/19/11 10/18/10
f 6/17/6 5/16/5 11/19/11
f 12/31/12 9/30/9 3/28/3
f 3/28/3 4/29/4 12/31/12
f 23/5/23 24/6/24 25/39/25
f 24/6/24 23/5/23 26/40/26
f 24/14/24 22/13/22 19/7/19
f 22/13/22 24/14/24 26/15/26
f 21/10/21 20/8/20 25/12/25
f 20/8/20 23/11/23 25/12/25
s 2
f 28/38/28 27/37/27 17/9/17
f 28/38/28 17/9/17 18/36/18
# 22 faces

g
