# Max2Obj Version 4.0 Mar 10th, 2001
#
# object objDuplicate01 to come ...
#
v  -5.000000 -2.999466 5.000000
v  5.000000 -3.000000 5.000000
v  -5.000000 4.500534 5.000000
v  5.000000 4.500198 5.000000
v  5.000000 4.499998 5.000000
v  -5.000000 -3.000003 5.000000
v  5.000000 -2.999996 5.000000
v  -5.000000 4.500002 5.000000
# 8 vertices

vt  1.000000 0.000000 0.000000
vt  1.000000 1.000000 0.000000
vt  0.000000 0.000000 0.000000
vt  0.000000 1.000000 0.000000
vt  71.617477 110.506775 0.000000
vt  51.617397 110.506775 0.000000
vt  51.617393 120.505623 0.000000
vt  71.617470 120.505623 0.000000
vt  1.000000 0.000000 0.000000
vt  1.000000 1.000000 0.000000
vt  0.000000 0.000000 0.000000
vt  0.000000 1.000000 0.000000
vt  71.617477 110.506775 0.000000
vt  51.617397 110.506775 0.000000
vt  51.617393 120.505623 0.000000
vt  71.617470 120.505623 0.000000
# 16 texture vertices

vn  0.000000 0.000000 -0.000000
vn  0.000000 0.000000 -0.000000
vn  0.000000 0.000000 -0.000000
vn  0.000000 0.000000 -0.000000
vn  0.000000 -0.000000 1.000000
vn  0.000000 -0.000000 1.000000
vn  0.000000 -0.000000 1.000000
vn  -0.000000 0.000000 1.000000
# 8 vertex normals

g objDuplicate01
s 2
f 5/7/5 6/8/6 7/7/7
f 6/8/6 5/7/5 8/8/8
# 2 faces

g
