# Max2Obj Version 4.0 Mar 10th, 2001
#
# object objRegroup01 to come ...
#
v  -5.000000 -4.000000 5.000000
v  5.000000 -4.000000 5.000000
v  5.000000 -4.000000 -5.000000
v  -5.000000 -4.000000 -5.000000
v  -5.000000 6.000000 -5.000000
v  -5.000000 6.000000 5.000000
v  5.000000 6.000000 5.000000
# 7 vertices

vt  0.010000 0.504207 0.000000
vt  0.504207 0.010000 0.000000
vt  0.990000 0.010000 0.000000
vt  0.990000 0.495793 0.000000
vt  0.504207 0.495793 0.000000
vt  0.495793 0.010000 0.000000
vt  0.010000 0.010000 0.000000
vt  0.495793 0.495793 0.000000
vt  0.010000 0.495793 0.000000
vt  0.495793 0.504207 0.000000
vt  0.495793 0.990000 0.000000
vt  0.010000 0.990000 0.000000
# 12 texture vertices

vn  0.577350 0.577350 -0.577350
vn  0.000000 0.707107 -0.707107
vn  0.000000 1.000000 0.000000
vn  0.707107 0.707107 0.000000
vn  1.000000 0.000000 0.000000
vn  0.707107 0.000000 -0.707107
vn  0.000000 0.000000 -1.000000
# 7 vertex normals

g objRegroup01
s 16
f 1/1/1 2/10/2 3/11/3
f 3/11/3 4/12/4 1/1/1
f 5/4/5 6/5/6 1/2/1
f 1/2/1 4/3/4 5/4/5
f 6/8/6 7/9/7 2/7/2
f 2/7/2 1/6/1 6/8/6
# 6 faces

g
