# Max2Obj Version 4.0 Mar 10th, 2001
#
# object objobjobjDuplicate05 to come ...
#
v  0.000000 -4.999999 -4.999992
v  4.000000 -4.499465 -4.999992
v  4.000000 -4.999999 -4.999992
v  0.000000 -4.499465 -4.999992
v  -5.000000 5.000000 5.000000
v  -5.000000 6.000000 4.999998
v  5.000000 6.000000 4.999999
v  5.000000 5.000000 5.000000
v  -5.000000 5.000000 15.000000
v  -5.000000 6.000000 15.000000
v  5.000000 6.000000 15.000000
v  5.000000 5.000000 15.000000
v  4.000000 6.000000 14.500000
v  0.000000 5.000000 14.500000
v  0.000000 6.000000 14.500000
v  4.000000 5.000000 14.500000
v  0.000000 6.000001 5.500000
v  0.000000 5.000000 5.500000
v  4.000000 6.000001 5.500000
v  4.000000 5.000000 5.500000
v  0.000000 -2.499466 -0.999992
v  4.000000 -2.500000 0.000008
v  4.000000 -2.499466 -0.999992
v  0.000000 -2.500000 0.000008
v  0.000000 -3.000000 -0.999992
v  4.000000 -3.000000 -0.999992
v  0.000000 -1.999466 1.000008
v  4.000000 -1.500000 1.000008
v  4.000000 -1.999466 1.000008
v  0.000000 -1.500000 1.000008
v  4.000000 -2.000000 0.000008
v  0.000000 -2.000000 0.000008
v  0.000000 -0.999466 2.000008
v  4.000000 -1.000000 3.000008
v  4.000000 -0.999466 2.000008
v  0.000000 -1.000000 3.000008
v  4.000000 -1.500000 2.000008
v  0.000000 -1.500000 2.000008
v  4.000000 -0.500000 3.000008
v  0.000000 -0.500000 3.000008
v  4.000000 -0.499466 4.000008
v  0.000000 -0.499466 4.000008
v  0.000000 0.000534 4.000008
v  4.000000 0.000000 5.000008
v  4.000000 0.000534 4.000008
v  0.000000 0.000000 5.000008
v  0.000000 0.500534 6.000008
v  4.000000 1.000000 6.000008
v  4.000000 0.500534 6.000008
v  0.000000 1.000000 6.000008
v  4.000000 0.500000 5.000008
v  0.000000 0.500000 5.000008
v  0.000000 1.500534 7.000008
v  4.000000 1.500000 8.000008
v  4.000000 1.500534 7.000008
v  0.000000 1.500000 8.000008
v  4.000000 1.000000 7.000008
v  0.000000 1.000000 7.000008
v  4.000000 2.000000 8.000008
v  0.000000 2.000000 8.000008
v  4.000000 2.000534 9.000008
v  0.000000 2.000534 9.000008
v  0.000000 2.500534 9.000008
v  4.000000 2.500000 10.000008
v  4.000000 2.500534 9.000008
v  0.000000 2.500000 10.000008
v  0.000000 3.000534 11.000008
v  4.000000 3.500000 11.000008
v  4.000000 3.000534 11.000008
v  0.000000 3.500000 11.000008
v  4.000000 3.000000 10.000008
v  0.000000 3.000000 10.000008
v  0.000000 4.000534 12.000008
v  4.000000 4.000000 13.000008
v  4.000000 4.000534 12.000008
v  0.000000 4.000000 13.000008
v  4.000000 3.500000 12.000008
v  0.000000 3.500000 12.000008
v  4.000000 4.500000 13.000008
v  0.000000 4.500000 13.000008
v  4.000000 4.500534 14.000008
v  0.000000 4.500534 14.000008
v  0.000000 5.000534 14.000008
v  4.000000 5.000000 14.750008
v  4.000000 5.000534 14.000008
v  0.000000 5.000000 14.750008
v  4.000000 -4.499999 -3.999992
v  0.000000 -4.499999 -3.999992
v  0.000000 -3.999466 -2.999992
v  4.000000 -3.500000 -2.999992
v  4.000000 -3.999466 -2.999992
v  0.000000 -3.500000 -2.999992
v  4.000000 -4.000000 -3.999992
v  0.000000 -4.000000 -3.999992
v  0.000000 -2.999466 -1.999992
v  4.000000 -2.999466 -1.999992
v  4.000000 -3.500000 -1.999992
v  0.000000 -3.500000 -1.999992
v  5.000000 5.000535 -15.000000
v  5.000000 -4.999465 -15.000000
v  5.000000 -4.999999 -5.000000
v  5.000000 5.000199 -5.000000
v  -5.000000 5.000199 -15.000000
v  -5.000000 -4.999999 -15.000000
v  -5.000000 -4.999999 -5.000000
v  -5.000000 5.000199 -5.000000
v  0.000000 5.000199 -5.000000
v  4.000000 5.000199 -5.000000
v  4.000000 -5.000000 15.000000
v  4.000000 5.000198 15.000000
v  0.000000 -5.000000 15.000000
v  0.000000 5.000198 15.000000
# 112 vertices

vt  0.937657 0.620232 0.000000
vt  0.937657 0.524051 0.000000
vt  0.949692 0.524051 0.000000
vt  0.250455 0.507470 0.000000
vt  0.693975 0.764502 0.000000
vt  0.718020 0.764502 0.000000
vt  0.693975 0.524051 0.000000
vt  0.718020 0.524051 0.000000
vt  0.677406 0.524051 0.000000
vt  0.653361 0.524051 0.000000
vt  0.677406 0.764502 0.000000
vt  0.653361 0.764502 0.000000
vt  0.400900 0.902117 0.000000
vt  0.388865 0.805937 0.000000
vt  0.400900 0.805937 0.000000
vt  0.388865 0.902117 0.000000
vt  0.758633 0.524051 0.000000
vt  0.734588 0.524051 0.000000
vt  0.734588 0.764502 0.000000
vt  0.758633 0.764502 0.000000
vt  0.507475 0.540633 0.000000
vt  0.267024 0.540633 0.000000
vt  0.507475 0.781084 0.000000
vt  0.267024 0.781084 0.000000
vt  0.291069 0.769061 0.000000
vt  0.387249 0.769061 0.000000
vt  0.387249 0.552655 0.000000
vt  0.291069 0.552655 0.000000
vt  0.772778 0.275316 0.000000
vt  0.772778 0.515767 0.000000
vt  0.532328 0.275316 0.000000
vt  0.532328 0.515767 0.000000
vt  0.652553 0.515767 0.000000
vt  0.805108 0.275316 0.000000
vt  0.781063 0.275316 0.000000
vt  0.781063 0.491722 0.000000
vt  0.805108 0.491722 0.000000
vt  0.815816 0.740457 0.000000
vt  0.839861 0.740457 0.000000
vt  0.815816 0.524051 0.000000
vt  0.839861 0.524051 0.000000
vt  0.799247 0.764502 0.000000
vt  0.775202 0.764502 0.000000
vt  0.775202 0.524051 0.000000
vt  0.799247 0.524051 0.000000
vt  0.378133 0.758698 0.000000
vt  0.354088 0.758698 0.000000
vt  0.378133 0.662517 0.000000
vt  0.354088 0.662517 0.000000
vt  0.897043 0.620232 0.000000
vt  0.897043 0.524051 0.000000
vt  0.921088 0.620232 0.000000
vt  0.921088 0.524051 0.000000
vt  0.628508 0.524051 0.000000
vt  0.532328 0.524051 0.000000
vt  0.628508 0.776525 0.000000
vt  0.532328 0.776525 0.000000
vt  0.250455 0.490901 0.000000
vt  0.010000 0.490901 0.000000
vt  0.250455 0.010000 0.000000
vt  0.010000 0.010000 0.000000
vt  0.507475 0.275316 0.000000
vt  0.507475 0.515767 0.000000
vt  0.267024 0.515780 0.000000
vt  0.267024 0.275325 0.000000
vt  0.653361 0.781071 0.000000
vt  0.677406 0.877251 0.000000
vt  0.653361 0.877251 0.000000
vt  0.677406 0.781071 0.000000
vt  0.267024 0.010000 0.000000
vt  0.267024 0.250451 0.000000
vt  0.507475 0.010008 0.000000
vt  0.507475 0.250464 0.000000
vt  0.693975 0.877251 0.000000
vt  0.693975 0.781071 0.000000
vt  0.718020 0.877251 0.000000
vt  0.718020 0.781071 0.000000
vt  0.345803 0.758698 0.000000
vt  0.321758 0.662517 0.000000
vt  0.345803 0.662517 0.000000
vt  0.321758 0.758698 0.000000
vt  0.856429 0.845730 0.000000
vt  0.856429 0.749549 0.000000
vt  0.868465 0.845730 0.000000
vt  0.868465 0.749549 0.000000
vt  0.966248 0.732981 0.000000
vt  0.954238 0.636800 0.000000
vt  0.966248 0.636800 0.000000
vt  0.954238 0.732981 0.000000
vt  0.955540 0.275316 0.000000
vt  0.955540 0.371497 0.000000
vt  0.943517 0.275316 0.000000
vt  0.943517 0.371497 0.000000
vt  0.815816 0.853206 0.000000
vt  0.815816 0.757026 0.000000
vt  0.839861 0.757026 0.000000
vt  0.839861 0.853206 0.000000
vt  0.856429 0.524051 0.000000
vt  0.880474 0.620232 0.000000
vt  0.856429 0.620232 0.000000
vt  0.880474 0.524051 0.000000
vt  0.693975 0.990000 0.000000
vt  0.693975 0.893820 0.000000
vt  0.706010 0.893820 0.000000
vt  0.706010 0.990000 0.000000
vt  0.787224 0.893820 0.000000
vt  0.787224 0.990000 0.000000
vt  0.775202 0.893820 0.000000
vt  0.775202 0.990000 0.000000
vt  0.845721 0.388065 0.000000
vt  0.845721 0.484246 0.000000
vt  0.821676 0.388065 0.000000
vt  0.821676 0.484246 0.000000
vt  0.862290 0.275316 0.000000
vt  0.886335 0.371497 0.000000
vt  0.862290 0.371497 0.000000
vt  0.886335 0.275316 0.000000
vt  0.978283 0.524051 0.000000
vt  0.978283 0.620232 0.000000
vt  0.966261 0.620232 0.000000
vt  0.966261 0.524051 0.000000
vt  0.984118 0.371497 0.000000
vt  0.972109 0.275316 0.000000
vt  0.984118 0.275316 0.000000
vt  0.972109 0.371497 0.000000
vt  0.429492 0.805937 0.000000
vt  0.429492 0.902117 0.000000
vt  0.417469 0.805937 0.000000
vt  0.417469 0.902117 0.000000
vt  0.348251 0.902117 0.000000
vt  0.348251 0.805937 0.000000
vt  0.372296 0.805937 0.000000
vt  0.372296 0.902117 0.000000
vt  0.902904 0.275316 0.000000
vt  0.926949 0.371497 0.000000
vt  0.902904 0.371497 0.000000
vt  0.926949 0.275316 0.000000
vt  0.897043 0.732981 0.000000
vt  0.897043 0.636800 0.000000
vt  0.909078 0.636800 0.000000
vt  0.909078 0.732981 0.000000
vt  0.868452 0.862298 0.000000
vt  0.868452 0.958478 0.000000
vt  0.856429 0.862298 0.000000
vt  0.856429 0.958478 0.000000
vt  0.886335 0.388065 0.000000
vt  0.886335 0.484246 0.000000
vt  0.862290 0.388065 0.000000
vt  0.862290 0.484246 0.000000
vt  0.856429 0.636800 0.000000
vt  0.880474 0.732981 0.000000
vt  0.856429 0.732981 0.000000
vt  0.880474 0.636800 0.000000
vt  0.909065 0.749549 0.000000
vt  0.909065 0.845730 0.000000
vt  0.897043 0.845730 0.000000
vt  0.897043 0.749549 0.000000
vt  0.937657 0.845730 0.000000
vt  0.925647 0.749549 0.000000
vt  0.937657 0.749549 0.000000
vt  0.925647 0.845730 0.000000
vt  0.937669 0.636800 0.000000
vt  0.937669 0.732981 0.000000
vt  0.925647 0.636800 0.000000
vt  0.925647 0.732981 0.000000
vt  0.815816 0.965955 0.000000
vt  0.815816 0.869775 0.000000
vt  0.839861 0.869775 0.000000
vt  0.839861 0.965955 0.000000
vt  0.572941 0.801378 0.000000
vt  0.596986 0.897558 0.000000
vt  0.572941 0.897558 0.000000
vt  0.596986 0.801378 0.000000
vt  0.734588 0.877251 0.000000
vt  0.734588 0.781071 0.000000
vt  0.758633 0.877251 0.000000
vt  0.758633 0.781071 0.000000
vt  0.653361 0.990000 0.000000
vt  0.653361 0.893820 0.000000
vt  0.665396 0.893820 0.000000
vt  0.665396 0.990000 0.000000
vt  0.746611 0.893820 0.000000
vt  0.746611 0.990000 0.000000
vt  0.734588 0.893820 0.000000
vt  0.734588 0.990000 0.000000
vt  0.331683 0.805937 0.000000
vt  0.331683 0.902117 0.000000
vt  0.307638 0.805937 0.000000
vt  0.307638 0.902117 0.000000
vt  0.613555 0.801378 0.000000
vt  0.631589 0.897558 0.000000
vt  0.613555 0.897558 0.000000
vt  0.631589 0.801378 0.000000
vt  0.914926 0.388065 0.000000
vt  0.914926 0.484246 0.000000
vt  0.902904 0.484246 0.000000
vt  0.902904 0.388065 0.000000
vt  0.821676 0.371497 0.000000
vt  0.821676 0.275316 0.000000
vt  0.845721 0.371497 0.000000
vt  0.845721 0.275316 0.000000
vt  0.909053 0.958478 0.000000
vt  0.897043 0.862298 0.000000
vt  0.909053 0.862298 0.000000
vt  0.897043 0.958478 0.000000
vt  0.955540 0.388065 0.000000
vt  0.955540 0.484246 0.000000
vt  0.943517 0.388065 0.000000
vt  0.943517 0.484246 0.000000
vt  0.532328 0.897558 0.000000
vt  0.532328 0.801378 0.000000
vt  0.556373 0.801378 0.000000
vt  0.556373 0.897558 0.000000
vt  0.291069 0.805937 0.000000
vt  0.291069 0.902117 0.000000
vt  0.267024 0.805937 0.000000
vt  0.267024 0.902117 0.000000
vt  0.775202 0.877251 0.000000
vt  0.775202 0.781071 0.000000
vt  0.799247 0.877251 0.000000
vt  0.799247 0.781071 0.000000
vt  0.949692 0.620232 0.000000
vt  0.917857 0.250455 0.000000
vt  0.797631 0.250455 0.000000
vt  0.797631 0.010000 0.000000
vt  0.917857 0.010000 0.000000
vt  0.652553 0.250451 0.000000
vt  0.532328 0.010000 0.000000
vt  0.532328 0.250451 0.000000
vt  0.772778 0.010000 0.000000
vt  0.772778 0.250451 0.000000
vt  0.942710 0.250455 0.000000
vt  0.966755 0.250455 0.000000
vt  0.966755 0.010000 0.000000
vt  0.942710 0.010000 0.000000
vt  0.010000 0.507470 0.000000
vt  0.250455 0.988372 0.000000
vt  0.010000 0.988372 0.000000
# 238 texture vertices

vn  0.333329 0.666676 -0.666659
vn  0.000000 0.707296 -0.706918
vn  -0.447217 -0.000000 -0.894426
vn  0.000000 0.707296 -0.706918
vn  -0.707107 -0.000001 -0.707106
vn  -0.577350 0.577350 -0.577351
vn  0.577350 0.577350 -0.577351
vn  0.707107 -0.000001 -0.707107
vn  -0.707107 0.000000 0.707107
vn  -0.577350 0.577350 0.577350
vn  0.577350 0.577350 0.577350
vn  0.707107 0.000000 0.707107
vn  -0.301511 0.904534 -0.301511
vn  0.707107 0.000000 -0.707107
vn  0.301511 0.904534 -0.301511
vn  -0.707107 0.000000 -0.707107
vn  0.301511 0.904534 0.301510
vn  0.577354 -0.577354 0.577343
vn  -0.301511 0.904534 0.301511
vn  -0.577354 -0.577354 0.577343
vn  0.000000 0.707296 -0.706918
vn  0.000000 0.707296 -0.706918
vn  0.000000 0.707296 -0.706918
vn  0.000000 0.707296 -0.706918
vn  0.000000 0.707296 -0.706918
vn  0.000000 0.707296 -0.706918
vn  0.000000 0.706918 -0.707296
vn  0.000000 0.707107 -0.707107
vn  0.000000 0.706918 -0.707296
vn  0.000000 0.707107 -0.707107
vn  0.000000 0.706918 -0.707296
vn  0.000000 0.706918 -0.707296
vn  0.000000 0.707296 -0.706918
vn  0.000000 0.707296 -0.706918
vn  0.000000 0.707296 -0.706918
vn  0.000000 0.707296 -0.706918
vn  0.000000 0.707107 -0.707107
vn  0.000000 0.707107 -0.707107
vn  0.000000 0.706918 -0.707296
vn  0.000000 0.706918 -0.707296
vn  0.000000 0.706918 -0.707296
vn  0.000000 0.706918 -0.707296
vn  0.000000 0.707296 -0.706918
vn  0.000000 0.707296 -0.706918
vn  0.000000 0.707296 -0.706918
vn  0.000000 0.707296 -0.706918
vn  0.000000 0.706918 -0.707295
vn  0.000000 0.707107 -0.707107
vn  0.000000 0.706918 -0.707296
vn  0.000000 0.707107 -0.707107
vn  0.000000 0.706918 -0.707296
vn  0.000000 0.706918 -0.707296
vn  0.000000 0.707296 -0.706918
vn  0.000000 0.707296 -0.706918
vn  0.000000 0.707296 -0.706918
vn  0.000000 0.707296 -0.706918
vn  0.000000 0.707107 -0.707107
vn  0.000000 0.707107 -0.707107
vn  0.000000 0.706918 -0.707296
vn  0.000000 0.706918 -0.707296
vn  0.000000 0.706918 -0.707296
vn  0.000000 0.706918 -0.707296
vn  0.000000 0.707296 -0.706918
vn  0.000000 0.707296 -0.706918
vn  0.000000 0.707296 -0.706918
vn  0.000000 0.707296 -0.706918
vn  0.000000 0.706918 -0.707296
vn  0.000000 0.707107 -0.707107
vn  0.000000 0.706918 -0.707296
vn  0.000000 0.707107 -0.707107
vn  0.000000 0.706918 -0.707296
vn  0.000000 0.706918 -0.707296
vn  0.000000 0.707296 -0.706918
vn  0.000000 0.707296 -0.706918
vn  0.000000 0.707296 -0.706918
vn  0.000000 0.707296 -0.706918
vn  0.000000 0.707107 -0.707107
vn  0.000000 0.707107 -0.707107
vn  0.000000 0.706918 -0.707296
vn  0.000000 0.706918 -0.707296
vn  0.000000 0.706918 -0.707296
vn  0.000000 0.706918 -0.707296
vn  0.000000 0.707358 -0.706855
vn  0.000000 1.000000 0.000712
vn  0.000000 0.707358 -0.706855
vn  0.000000 1.000000 0.000712
vn  0.000000 0.707296 -0.706918
vn  0.000000 0.707296 -0.706918
vn  0.000000 0.706918 -0.707296
vn  0.000000 0.707107 -0.707107
vn  0.000000 0.706918 -0.707296
vn  0.000000 0.707107 -0.707107
vn  0.000000 0.706918 -0.707296
vn  0.000000 0.706918 -0.707296
vn  0.000000 0.707296 -0.706918
vn  0.000000 0.707296 -0.706918
vn  0.000000 0.707107 -0.707107
vn  0.000000 0.707107 -0.707107
vn  -0.577341 -0.577367 0.577342
vn  -0.577365 0.577323 0.577363
vn  -0.577350 0.577366 -0.577335
vn  -0.577352 -0.577340 -0.577359
vn  0.000017 -0.707103 0.707110
vn  -0.000027 0.707112 0.707101
vn  0.000001 0.707107 -0.707106
vn  0.000000 -0.707107 -0.707107
vn  0.301515 -0.904528 -0.301525
vn  -0.577347 -0.577347 -0.577357
vn  -1.000000 0.000000 0.000000
vn  -1.000000 0.000000 0.000000
vn  1.000000 0.000000 0.000000
vn  1.000000 0.000000 0.000000
# 112 vertex normals

g objobjobjDuplicate05
s 16
f 1/13/1 2/14/2 3/15/3
f 2/14/2 1/13/1 4/16/4
f 5/42/5 6/43/6 7/44/7
f 7/44/7 8/45/8 5/42/5
f 5/9/5 9/11/9 10/12/10
f 10/12/10 6/10/6 5/9/5
f 10/18/10 9/17/9 11/19/11
f 11/19/11 9/17/9 12/20/12
f 12/8/12 8/6/8 11/7/11
f 11/7/11 8/6/8 7/5/7
f 13/66/13 14/67/14 15/68/15
f 16/69/16 14/67/14 13/66/13
f 17/46/17 18/47/18 19/48/19
f 19/48/19 18/47/18 20/49/20
f 15/35/15 14/34/14 18/37/18
f 18/37/18 17/36/17 15/35/15
f 13/38/13 19/40/19 20/41/20
f 20/41/20 16/39/16 13/38/13
f 10/23/10 15/26/15 17/27/17
f 17/27/17 6/21/6 10/23/10
f 19/28/19 7/22/7 17/27/17
f 17/27/17 7/22/7 6/21/6
f 13/25/13 11/24/11 7/22/7
f 7/22/7 19/28/19 13/25/13
f 13/25/13 15/26/15 11/24/11
f 11/24/11 15/26/15 10/23/10
f 21/78/21 22/79/22 23/80/23
f 22/79/22 21/78/21 24/81/24
f 25/84/25 23/83/23 26/85/26
f 23/83/23 25/84/25 21/82/21
f 27/86/27 28/87/28 29/88/29
f 28/87/28 27/86/27 30/89/30
f 24/91/24 31/92/31 22/90/22
f 31/92/31 24/91/24 32/93/32
f 32/97/32 29/95/29 31/96/31
f 29/95/29 32/97/32 27/94/27
f 33/98/33 34/99/34 35/100/35
f 34/99/34 33/98/33 36/101/36
f 30/51/30 37/52/37 28/50/28
f 37/52/37 30/51/30 38/53/38
f 38/105/38 35/103/35 37/104/37
f 35/103/35 38/105/38 33/102/33
f 36/107/36 39/108/39 34/106/34
f 39/108/39 36/107/36 40/109/40
f 40/111/40 41/112/41 39/110/39
f 41/112/41 40/111/40 42/113/42
f 43/114/43 44/115/44 45/116/45
f 44/115/44 43/114/43 46/117/46
f 42/119/42 45/121/45 41/118/41
f 45/121/45 42/119/42 43/120/43
f 47/122/47 48/123/48 49/124/49
f 48/123/48 47/122/47 50/125/50
f 46/127/46 51/128/51 44/126/44
f 51/128/51 46/127/46 52/129/52
f 52/133/52 49/131/49 51/132/51
f 49/131/49 52/133/52 47/130/47
f 53/134/53 54/135/54 55/136/55
f 54/135/54 53/134/53 56/137/56
f 50/75/50 57/76/57 48/74/48
f 57/76/57 50/75/50 58/77/58
f 58/141/58 55/139/55 57/140/57
f 55/139/55 58/141/58 53/138/53
f 56/143/56 59/144/59 54/142/54
f 59/144/59 56/143/56 60/145/60
f 60/147/60 61/148/61 59/146/59
f 61/148/61 60/147/60 62/149/62
f 63/150/63 64/151/64 65/152/65
f 64/151/64 63/150/63 66/153/66
f 62/155/62 65/157/65 61/154/61
f 65/157/65 62/155/62 63/156/63
f 67/158/67 68/159/68 69/160/69
f 68/159/68 67/158/67 70/161/70
f 66/163/66 71/164/71 64/162/64
f 71/164/71 66/163/66 72/165/72
f 72/169/72 69/167/69 71/168/71
f 69/167/69 72/169/72 67/166/67
f 73/170/73 74/171/74 75/172/75
f 74/171/74 73/170/73 76/173/76
f 70/175/70 77/176/77 68/174/68
f 77/176/77 70/175/70 78/177/78
f 78/181/78 75/179/75 77/180/77
f 75/179/75 78/181/78 73/178/73
f 76/183/76 79/184/79 74/182/74
f 79/184/79 76/183/76 80/185/80
f 80/187/80 81/188/81 79/186/79
f 81/188/81 80/187/80 82/189/82
f 83/190/83 84/191/84 85/192/85
f 84/191/84 83/190/83 86/193/86
f 82/195/82 85/197/85 81/194/81
f 85/197/85 82/195/82 83/196/83
f 4/199/4 87/200/87 2/198/2
f 87/200/87 4/199/4 88/201/88
f 89/202/89 90/203/90 91/204/91
f 90/203/90 89/202/89 92/205/92
f 88/207/88 93/208/93 87/206/87
f 93/208/93 88/207/88 94/209/94
f 94/213/94 91/211/91 93/212/93
f 91/211/91 94/213/94 89/210/89
f 95/216/95 26/215/26 96/217/96
f 26/215/26 95/216/95 25/214/25
f 92/219/92 97/220/97 90/218/90
f 97/220/97 92/219/92 98/221/98
f 98/222/98 96/2/96 97/3/97
f 96/2/96 98/222/98 95/1/95
f 99/62/99 100/63/100 101/64/101
f 101/64/101 102/65/102 99/62/99
f 100/71/100 103/72/103 104/73/104
f 99/70/99 103/72/103 100/71/100
f 1/223/1 105/224/105 106/225/106
f 106/225/106 107/226/107 1/223/1
f 106/32/106 103/31/103 107/33/107
f 107/33/107 103/31/103 99/29/99
f 99/29/99 102/30/102 107/33/107
f 1/227/1 104/230/104 105/231/105
f 1/227/1 100/228/100 104/230/104
f 100/228/100 1/227/1 101/229/101
f 101/233/101 3/232/3 108/235/108
f 108/235/108 102/234/102 101/233/101
f 107/56/107 108/57/108 18/54/18
f 18/54/18 108/57/108 20/55/20
f 108/236/108 3/4/3 109/237/109
f 109/237/109 110/238/110 108/236/108
f 111/60/111 1/58/1 107/59/107
f 107/59/107 112/61/112 111/60/111
# 124 faces

g
