# 3ds Max Wavefront OBJ Exporter v0.97b - (c)2007 guruware
# File Created: 18.02.2011 12:57:11

mtllib 57.mtl

#
# object objobjDuplicate04
#

v  -5.0000 -4.5000 4.5000
v  5.0000 -4.5000 -5.0000
v  -5.0000 -4.5000 -5.0000
v  5.0000 -4.5000 4.5000
v  -5.0000 -4.5217 4.5000
v  5.0000 5.0000 4.5215
v  -5.0000 5.0000 4.5000
# 7 vertices

vn 0.0000 1.0000 -0.0000
vn 0.0000 0.0000 -1.0000
# 2 vertex normals

vt 0.0100 0.5102 0.0000
vt 0.4898 0.9900 0.0000
vt 0.0100 0.9900 0.0000
vt 0.4898 0.5102 0.0000
vt 0.4898 0.4898 0.0000
vt 0.0100 0.0100 0.0000
vt 0.4898 0.0100 0.0000
vt 0.0100 0.4898 0.0000
# 8 texture coords

g objobjDuplicate04
usemtl default
s 4
f 1/1/1 2/2/1 3/3/1 
f 2/2/1 1/1/1 4/4/1 
f 5/5/2 6/6/2 4/7/2 
f 6/6/2 5/5/2 7/8/2 
# 0 polygons - 4 triangles

