# 3ds Max Wavefront OBJ Exporter v0.97b - (c)2007 guruware
# File Created: 17.07.2012 13:35:54

mtllib triangle_final.mtl

#
# object objobjobjRegroup09
#

v  -5.75000000 5.00019979 5.00000000
v  -5.75000000 5.00050020 -5.00000000
v  -5.50000000 4.00019979 5.00000000
v  -5.50000000 4.00050020 -5.00000000
v  -5.00000000 -3.99979997 5.00000000
v  -5.00000000 -3.99950004 -5.00000000
v  -5.00000000 -4.99980021 5.00000000
v  -5.00000000 -4.99949980 -5.00000000
v  5.00000000 5.00019979 5.00000000
v  5.00000000 5.00050020 -5.00000000
v  5.00000000 4.00050020 -5.00000000
v  5.00000000 4.00019979 5.00000000
v  5.00000000 -3.99979997 5.00000000
v  5.00000000 -3.99950004 -5.00000000
v  -3.50000000 3.00049996 -3.00000000
v  -4.50000000 3.00049996 -3.00000000
v  -3.50000000 -1.99950004 -3.00000000
v  -4.50000000 -1.99950004 -3.00000000
v  -3.50000000 -1.99950004 3.00000000
v  -4.50000000 3.00049996 3.00000000
v  -3.50000000 3.00049996 3.00000000
v  -4.50000000 -1.99950004 3.00000000
v  -4.50000000 -3.99950004 -5.00000000
v  -4.50000000 -3.99979997 5.00000000
v  -4.50000000 4.00050020 -5.00000000
v  -4.50000000 4.00019979 5.00000000
v  -3.50000000 4.00050020 5.00000000
v  -3.50000000 -3.99950004 5.00000000
v  -3.50000000 -3.99950004 -5.00000000
v  -3.50000000 4.00050020 -5.00000000
v  -4.43380022 -2.55439997 -2.86949992
v  -4.43380022 -2.05450010 -3.73559999
v  -3.68379998 -2.05450010 -3.73559999
v  -3.68379998 -2.55439997 -2.86949992
v  -4.43380022 3.50839996 0.62949997
v  -3.68379998 3.50839996 0.62949997
v  -3.68379998 4.00829983 -0.23670000
v  -4.43380022 4.00829983 -0.23670000
v  -4.34100008 -2.07660007 3.68720007
v  -4.34100008 -2.57820010 2.82209992
v  -3.59100008 -2.57820010 2.82209992
v  -3.59100008 -2.07660007 3.68720007
v  -4.34100008 3.97939992 0.17659999
v  -3.59100008 3.97939992 0.17659999
v  -3.59100008 3.47779989 -0.68860000
v  -4.34100008 3.47779989 -0.68860000
v  -4.40280008 -1.30209994 3.53069997
v  -4.40280008 -2.30200005 3.53550005
v  -3.65280008 -2.30200005 3.53550005
v  -3.65280008 -1.30209994 3.53069997
v  -4.40280008 -1.33519995 -3.46919990
v  -3.65280008 -1.33519995 -3.46919990
v  -3.65280008 -2.33509994 -3.46449995
v  -4.40280008 -2.33509994 -3.46449995
v  5.00000000 -4.00000000 -5.00000000
v  5.00000000 -4.00000000 5.00000000
v  5.00000000 -5.00000000 -5.00000000
v  5.00000000 -5.00000000 5.00000000
# 58 vertices

vn -0.78820002 0.61540002 -0.00000000
vn -0.61540002 -0.78820002 -0.00000000
vn -0.70709997 0.70709997 -0.00000000
vn -1.00000000 0.00000000 -0.00000000
vn 0.00000000 1.00000000 -0.00000000
vn 0.00000000 -1.00000000 -0.00000000
vn 0.90450001 -0.30149999 0.30149999
vn -0.90450001 -0.30149999 0.30149999
vn 0.90450001 0.30149999 0.30149999
vn -0.90450001 0.30149999 0.30149999
vn 0.90450001 0.30149999 -0.30149999
vn -0.90450001 -0.30149999 -0.30149999
vn 0.90450001 -0.30149999 -0.30149999
vn -0.90450001 0.30149999 -0.30149999
vn 1.00000000 0.00000000 -0.00000000
vn 0.00000000 -0.86608744 -0.49989262
vn 0.00000000 -0.86608738 -0.49989253
vn 0.00000000 0.86611235 0.49984935
vn 0.00000000 -0.49985433 0.86610949
vn 0.00000000 -0.49985436 0.86610949
vn 0.00000000 0.49984372 -0.86611569
vn 0.00000000 0.49984360 -0.86611563
vn 0.00000000 -0.86509979 0.50159985
vn 0.00000000 -0.86509973 0.50159979
vn 0.00000000 0.86512488 -0.50155652
vn 0.00000000 0.50151712 0.86514771
vn 0.00000000 0.50151712 0.86514777
vn 0.00000000 -0.50152779 -0.86514151
vn 0.00000000 -0.50152785 -0.86514157
vn 0.00000000 0.00480051 0.99998850
vn 0.00000000 0.00480051 0.99998844
vn 0.00000000 -0.00470036 -0.99998891
vn 0.00000000 0.99998885 -0.00472859
vn 0.00000000 -0.99998879 0.00472850
vn 0.00000000 -0.99998885 0.00472850
vn -0.99999994 0.00000000 -0.00000000
# 36 vertex normals

vt 0.38362232 0.65750659 0.00000000
vt 0.71611577 0.65749651 0.00000000
vt 0.38362232 0.69075596 0.00000000
vt 0.71611577 0.69074589 0.00000000
vt 0.38362232 0.71527004 0.00000000
vt 0.71611577 0.71526009 0.00000000
vt 0.38362232 0.74851942 0.00000000
vt 0.71611577 0.74850935 0.00000000
vt 0.36743045 0.34249344 0.00000000
vt 0.01000000 0.34249344 0.00000000
vt 0.01000000 0.01000000 0.00000000
vt 0.36743045 0.01000000 0.00000000
vt 0.35911813 0.36699763 0.00000000
vt 0.35911813 0.69949108 0.00000000
vt 0.01000000 0.69949108 0.00000000
vt 0.01000000 0.36699763 0.00000000
vt 0.39193463 0.01000000 0.00000000
vt 0.72442812 0.01000000 0.00000000
vt 0.72442812 0.34249344 0.00000000
vt 0.39193463 0.34249344 0.00000000
vt 0.80727488 0.89146924 0.00000000
vt 0.80727488 0.92471862 0.00000000
vt 0.64102817 0.89146924 0.00000000
vt 0.64102817 0.92471862 0.00000000
vt 0.73259616 0.23336291 0.00000000
vt 0.89884287 0.20011358 0.00000000
vt 0.89884287 0.23336291 0.00000000
vt 0.73259616 0.20011358 0.00000000
vt 0.94011599 0.52259952 0.00000000
vt 0.74061996 0.52259952 0.00000000
vt 0.74061996 0.48935020 0.00000000
vt 0.94011599 0.48935020 0.00000000
vt 0.93209219 0.13419197 0.00000000
vt 0.93209219 0.16744134 0.00000000
vt 0.73259616 0.16744134 0.00000000
vt 0.73259616 0.13419197 0.00000000
vt 0.34249344 0.98999000 0.00000000
vt 0.01000000 0.99000001 0.00000000
vt 0.07649869 0.92349130 0.00000000
vt 0.27599475 0.92349130 0.00000000
vt 0.34249344 0.72399527 0.00000000
vt 0.27599475 0.75724465 0.00000000
vt 0.07649869 0.75724465 0.00000000
vt 0.01000000 0.72400522 0.00000000
vt 0.64961702 0.56649369 0.00000000
vt 0.64961702 0.40024695 0.00000000
vt 0.71611577 0.36699763 0.00000000
vt 0.71611577 0.63299239 0.00000000
vt 0.38362232 0.63299239 0.00000000
vt 0.45012099 0.56649369 0.00000000
vt 0.38362232 0.36699763 0.00000000
vt 0.45012099 0.40024695 0.00000000
vt 0.96031237 0.22505060 0.00000000
vt 0.93151510 0.22505060 0.00000000
vt 0.93151510 0.20011359 0.00000000
vt 0.96031237 0.20011359 0.00000000
vt 0.73259616 0.29097217 0.00000000
vt 0.73259616 0.26603514 0.00000000
vt 0.76139671 0.26603514 0.00000000
vt 0.76139671 0.29097217 0.00000000
vt 0.64127284 0.85571402 0.00000000
vt 0.64127284 0.83077705 0.00000000
vt 0.84285706 0.83077705 0.00000000
vt 0.84285706 0.85571402 0.00000000
vt 0.61635047 0.83077705 0.00000000
vt 0.61676866 0.86402422 0.00000000
vt 0.38404226 0.86696500 0.00000000
vt 0.38362232 0.83371496 0.00000000
vt 0.74061996 0.79796058 0.00000000
vt 0.74061996 0.77302355 0.00000000
vt 0.94220412 0.77302355 0.00000000
vt 0.94220412 0.79796058 0.00000000
vt 0.74144399 0.40599525 0.00000000
vt 0.74061996 0.37275565 0.00000000
vt 0.97329533 0.36699763 0.00000000
vt 0.97411782 0.40024015 0.00000000
vt 0.73571050 0.98232788 0.00000000
vt 0.70694643 0.98232788 0.00000000
vt 0.70694643 0.95739084 0.00000000
vt 0.73571050 0.95739084 0.00000000
vt 0.87552923 0.85571402 0.00000000
vt 0.87552923 0.83077705 0.00000000
vt 0.90429658 0.83077705 0.00000000
vt 0.90429658 0.85571402 0.00000000
vt 0.74061996 0.58020878 0.00000000
vt 0.74061996 0.55527180 0.00000000
vt 0.94197792 0.55527180 0.00000000
vt 0.94197792 0.58020878 0.00000000
vt 0.73348576 0.04944526 0.00000000
vt 0.73259616 0.01620780 0.00000000
vt 0.96525913 0.01000000 0.00000000
vt 0.96614718 0.04324038 0.00000000
vt 0.38362232 0.97525698 0.00000000
vt 0.38362232 0.95031995 0.00000000
vt 0.58498031 0.95031995 0.00000000
vt 0.58498031 0.97525698 0.00000000
vt 0.96532863 0.07394944 0.00000000
vt 0.96568125 0.10719693 0.00000000
vt 0.73295051 0.10968781 0.00000000
vt 0.73259616 0.07643746 0.00000000
vt 0.67427421 0.98232788 0.00000000
vt 0.64102817 0.98232788 0.00000000
vt 0.64102817 0.95739084 0.00000000
vt 0.67427421 0.95739084 0.00000000
vt 0.87319320 0.89146924 0.00000000
vt 0.87319320 0.91640627 0.00000000
vt 0.83994710 0.91640627 0.00000000
vt 0.83994710 0.89146924 0.00000000
vt 0.74061996 0.74019700 0.00000000
vt 0.74061996 0.71526009 0.00000000
vt 0.97336209 0.71526009 0.00000000
vt 0.97336209 0.74019700 0.00000000
vt 0.61636436 0.89146924 0.00000000
vt 0.61652398 0.92471528 0.00000000
vt 0.38377857 0.92581582 0.00000000
vt 0.38362232 0.89256978 0.00000000
vt 0.97336537 0.65749651 0.00000000
vt 0.97336537 0.68243355 0.00000000
vt 0.74061996 0.68243355 0.00000000
vt 0.74061996 0.65749651 0.00000000
vt 0.74061996 0.46374547 0.00000000
vt 0.74077946 0.43049943 0.00000000
vt 0.97352159 0.43159997 0.00000000
vt 0.97336537 0.46484604 0.00000000
vt 0.38362232 0.77302355 0.00000000
vt 0.71611577 0.77302355 0.00000000
vt 0.38362232 0.80627286 0.00000000
vt 0.71611577 0.80627286 0.00000000
# 128 texture coords

g objobjobjRegroup09
usemtl default
s 16
f 1/1/1 2/2/1 3/3/2 
f 3/3/2 2/2/1 4/4/2 
f 5/5/3 6/6/3 7/7/4 
f 7/7/4 6/6/3 8/8/4 
f 1/9/1 9/10/5 10/11/5 
f 10/11/5 2/12/1 1/9/1 
f 3/13/2 4/14/2 11/15/6 
f 11/15/6 12/16/6 3/13/2 
f 5/17/3 13/18/5 14/19/5 
f 14/19/5 6/20/3 5/17/3 
f 15/21/7 16/22/8 17/23/9 
f 18/24/10 17/23/9 16/22/8 
f 19/25/11 20/26/12 21/27/13 
f 20/26/12 19/25/11 22/28/14 
f 18/29/10 22/30/14 19/31/11 
f 19/31/11 17/32/9 18/29/10 
f 21/33/13 20/34/12 16/35/8 
f 16/35/8 15/36/7 21/33/13 
f 23/37/4 24/38/4 22/39/14 
f 22/39/14 18/40/10 23/37/4 
f 23/37/4 18/40/10 25/41/4 
f 25/41/4 18/40/10 16/42/8 
f 16/42/8 20/43/12 26/44/4 
f 26/44/4 25/41/4 16/42/8 
f 22/39/14 24/38/4 26/44/4 
f 26/44/4 20/43/12 22/39/14 
f 19/45/11 21/46/13 27/47/15 
f 27/47/15 28/48/15 19/45/11 
f 19/45/11 28/48/15 29/49/15 
f 29/49/15 17/50/9 19/45/11 
f 17/50/9 29/49/15 30/51/15 
f 30/51/15 15/52/7 17/50/9 
f 15/52/7 30/51/15 27/47/15 
f 27/47/15 21/46/13 15/52/7 
usemtl wire_140088225
s 2
f 31/53/16 32/54/17 33/55/16 
f 33/55/16 34/56/17 31/53/16 
s 4
f 35/57/18 36/58/18 37/59/18 
f 37/59/18 38/60/18 35/57/18 
s 8
f 31/61/19 34/62/20 36/63/19 
f 36/63/19 35/64/20 31/61/19 
s 16
f 34/65/15 33/66/15 37/67/15 
f 37/67/15 36/68/15 34/65/15 
s 32
f 33/69/21 32/70/22 38/71/21 
f 38/71/21 37/72/22 33/69/21 
s 64
f 32/73/4 31/74/4 35/75/4 
f 35/75/4 38/76/4 32/73/4 
s 2
f 39/77/23 40/78/24 41/79/23 
f 41/79/23 42/80/24 39/77/23 
s 4
f 43/81/25 44/82/25 45/83/25 
f 45/83/25 46/84/25 43/81/25 
s 8
f 39/85/26 42/86/27 44/87/26 
f 44/87/26 43/88/27 39/85/26 
s 16
f 42/89/15 41/90/15 45/91/15 
f 45/91/15 44/92/15 42/89/15 
s 32
f 41/93/28 40/94/29 46/95/28 
f 46/95/28 45/96/29 41/93/28 
s 64
f 40/97/4 39/98/4 43/99/4 
f 43/99/4 46/100/4 40/97/4 
s 2
f 47/101/30 48/102/31 49/103/30 
f 49/103/30 50/104/31 47/101/30 
s 4
f 51/105/32 52/106/32 53/107/32 
f 53/107/32 54/108/32 51/105/32 
s 8
f 47/109/33 50/110/33 52/111/33 
f 52/111/33 51/112/33 47/109/33 
s 16
f 50/113/15 49/114/15 53/115/15 
f 53/115/15 52/116/15 50/113/15 
s 32
f 49/117/34 48/118/35 54/119/34 
f 54/119/34 53/120/35 49/117/34 
s 64
f 48/121/4 47/122/36 51/123/4 
f 51/123/4 54/124/36 48/121/4 
usemtl default
s 1
f 55/125/15 56/126/15 57/127/15 
f 58/128/15 57/127/15 56/126/15 
# 72 faces

