# 3ds Max Wavefront OBJ Exporter v0.97b - (c)2007 guruware
# File Created: 13.06.2011 20:25:00

mtllib 26.mtl

#
# object objobjobjDuplicate422b
#

v  -5.7500 5.0002 5.0000
v  -5.7500 5.0005 -5.0000
v  -5.5000 4.0002 5.0000
v  -5.5000 4.0005 -5.0000
v  -5.0000 -3.9998 5.0000
v  -5.0000 -3.9995 -5.0000
v  -5.0000 -4.9998 5.0000
v  -5.0000 -4.9995 -5.0000
v  5.0000 5.0002 5.0000
v  5.0000 5.0005 -5.0000
v  5.0000 4.0005 -5.0000
v  5.0000 4.0002 5.0000
v  5.0000 -3.9998 5.0000
v  5.0000 -3.9995 -5.0000
v  -3.5000 3.0005 -3.0000
v  -4.5000 3.0005 -3.0000
v  -3.5000 -3.9995 -3.0000
v  -4.5000 -3.9995 -3.0000
v  -3.5000 -3.9995 3.0000
v  -4.5000 3.0005 3.0000
v  -3.5000 3.0005 3.0000
v  -4.5000 -3.9995 3.0000
v  -4.5000 -3.9995 -5.0000
v  -4.5000 4.0005 -5.0000
v  -4.5000 4.0002 5.0000
v  -4.5000 -3.9998 5.0000
v  -3.5000 4.0005 5.0000
v  -3.5000 -3.9995 5.0000
v  -3.5000 -3.9995 -5.0000
v  -3.5000 4.0005 -5.0000
# 30 vertices

vn -0.7882 0.6154 0.0000
vn -0.7882 0.6154 0.0000
vn -0.6154 -0.7882 -0.0000
vn -0.6154 -0.7882 -0.0000
vn -0.7882 0.6154 0.0000
vn -0.6154 -0.7882 -0.0000
vn -0.7071 0.7071 0.0000
vn -0.7071 0.7071 0.0000
vn -1.0000 0.0000 0.0000
vn -1.0000 0.0000 0.0000
vn -0.7071 0.7071 0.0000
vn -1.0000 0.0000 0.0000
vn -0.7882 0.6154 0.0000
vn 0.0000 1.0000 0.0000
vn 0.0000 1.0000 0.0000
vn 0.0000 1.0000 0.0000
vn -0.7882 0.6154 0.0000
vn -0.7882 0.6154 0.0000
vn -0.6154 -0.7882 -0.0000
vn -0.6154 -0.7882 -0.0000
vn -0.0000 -1.0000 -0.0000
vn -0.0000 -1.0000 -0.0000
vn -0.0000 -1.0000 -0.0000
vn -0.6154 -0.7882 -0.0000
vn -0.7071 0.7071 0.0000
vn 0.0000 1.0000 0.0000
vn 0.0000 1.0000 0.0000
vn 0.0000 1.0000 0.0000
vn -0.7071 0.7071 0.0000
vn -0.7071 0.7071 0.0000
vn 0.9045 -0.3015 0.3015
vn -0.9045 -0.3015 0.3015
vn 0.7071 0.0000 0.7071
vn -0.7071 0.0000 0.7071
vn 0.7071 0.0000 0.7071
vn -0.9045 -0.3015 0.3015
vn 0.7071 0.0000 -0.7071
vn -0.9045 -0.3015 -0.3015
vn 0.9045 -0.3015 -0.3015
vn -0.9045 -0.3015 -0.3015
vn 0.7071 0.0000 -0.7071
vn -0.7071 0.0000 -0.7071
vn 0.9045 -0.3015 -0.3015
vn -0.9045 -0.3015 -0.3015
vn -0.9045 -0.3015 0.3015
vn -0.9045 -0.3015 0.3015
vn 0.9045 -0.3015 0.3015
vn 0.9045 -0.3015 -0.3015
vn -1.0000 0.0000 -0.0000
vn -0.7071 0.0000 0.7071
vn -1.0000 0.0000 0.0000
vn -1.0000 0.0000 0.0000
vn -0.7071 0.0000 0.7071
vn -0.9045 -0.3015 0.3015
vn -0.9045 -0.3015 0.3015
vn -0.9045 -0.3015 -0.3015
vn -1.0000 -0.0000 0.0000
vn -1.0000 -0.0000 0.0000
vn -1.0000 0.0000 0.0000
vn -0.9045 -0.3015 0.3015
vn -0.7071 0.0000 -0.7071
vn -1.0000 0.0000 -0.0000
vn -1.0000 -0.0000 0.0000
vn -1.0000 -0.0000 0.0000
vn -0.9045 -0.3015 -0.3015
vn -0.7071 0.0000 -0.7071
vn 0.7071 0.0000 -0.7071
vn 0.9045 -0.3015 -0.3015
vn 1.0000 0.0000 -0.0000
vn 1.0000 0.0000 -0.0000
vn 1.0000 0.0000 -0.0000
vn 0.7071 0.0000 -0.7071
vn 0.7071 0.0000 0.7071
vn 1.0000 0.0000 -0.0000
vn 1.0000 -0.0000 -0.0000
vn 1.0000 -0.0000 -0.0000
vn 0.9045 -0.3015 0.3015
vn 0.7071 0.0000 0.7071
vn 0.9045 -0.3015 0.3015
vn 1.0000 -0.0000 -0.0000
vn 1.0000 0.0000 -0.0000
vn 1.0000 0.0000 -0.0000
vn 0.9045 -0.3015 -0.3015
vn 0.9045 -0.3015 0.3015
# 84 vertex normals

vt 0.0100 0.8023 0.0000
vt 0.7605 0.9795 0.0000
vt 0.4061 0.9795 0.0000
vt 0.7605 0.6960 0.0000
vt 0.4061 0.6960 0.0000
vt 0.4770 0.9795 0.0000
vt 0.4770 0.7314 0.0000
vt 0.6896 0.9795 0.0000
vt 0.6896 0.7314 0.0000
vt 0.0100 0.8618 0.0000
vt 0.3644 0.8618 0.0000
vt 0.0100 0.8264 0.0000
vt 0.3644 0.8264 0.0000
vt 0.0100 0.9213 0.0000
vt 0.0100 0.8859 0.0000
vt 0.2581 0.9213 0.0000
vt 0.2581 0.8859 0.0000
vt 0.0100 0.9534 0.0000
vt 0.0100 0.9888 0.0000
vt 0.2581 0.9534 0.0000
vt 0.2581 0.9888 0.0000
vt 0.0100 0.0100 0.0000
vt 0.3909 0.3644 0.0000
vt 0.3909 0.0100 0.0000
vt 0.0100 0.3644 0.0000
vt 0.0100 0.7428 0.0000
vt 0.3821 0.3884 0.0000
vt 0.3821 0.7428 0.0000
vt 0.0100 0.3884 0.0000
vt 0.4061 0.6719 0.0000
vt 0.7605 0.6719 0.0000
vt 0.4061 0.3884 0.0000
vt 0.7605 0.3884 0.0000
vt 0.6896 0.6719 0.0000
vt 0.6896 0.4239 0.0000
vt 0.4770 0.6719 0.0000
vt 0.4770 0.4239 0.0000
vt 0.7694 0.3644 0.0000
vt 0.4150 0.0100 0.0000
vt 0.4150 0.3644 0.0000
vt 0.7694 0.0100 0.0000
vt 0.7774 0.0100 0.0000
vt 0.7774 0.0454 0.0000
vt 0.9900 0.0100 0.0000
vt 0.9900 0.0454 0.0000
vt 0.3644 0.8023 0.0000
vt 0.0100 0.7669 0.0000
vt 0.3644 0.7669 0.0000
# 48 texture coords

g objobjobjDuplicate422b
usemtl default
s 16
f 1/47/1 2/48/2 3/1/3 
f 3/1/4 2/48/5 4/46/6 
f 5/12/7 6/13/8 7/10/9 
f 7/10/10 6/13/11 8/11/12 
f 1/23/13 9/25/14 10/22/15 
f 10/22/16 2/24/17 1/23/18 
f 3/27/19 4/28/20 11/26/21 
f 11/26/22 12/29/23 3/27/24 
f 5/39/25 13/41/26 14/38/27 
f 14/38/28 6/40/29 5/39/30 
f 15/20/31 16/21/32 17/18/33 
f 18/19/34 17/18/35 16/21/36 
f 19/14/37 20/17/38 21/16/39 
f 20/17/40 19/14/41 22/15/42 
f 21/44/43 20/45/44 16/43/45 
f 16/43/46 15/42/47 21/44/48 
f 23/31/49 18/34/50 24/33/51 
f 24/33/52 18/34/53 16/35/54 
f 16/35/55 20/37/56 25/32/57 
f 25/32/58 24/33/59 16/35/60 
f 22/36/61 26/30/62 25/32/63 
f 25/32/64 20/37/65 22/36/66 
f 19/8/67 21/9/68 27/4/69 
f 27/4/70 28/2/71 19/8/72 
f 17/6/73 29/3/74 30/5/75 
f 30/5/76 15/7/77 17/6/78 
f 15/7/79 30/5/80 27/4/81 
f 27/4/82 21/9/83 15/7/84 
# 28 faces

#
# object Box001
#

v  -4.6846 3.2154 3.4528
v  -4.2885 3.2154 3.4721
v  -4.2885 3.2154 -3.5326
v  -4.6846 3.2154 -3.5518
v  -4.6846 3.0041 3.4528
v  -4.2885 3.0041 3.4721
v  -4.2885 3.0041 -3.5326
v  -4.6846 3.0041 -3.5518
# 8 vertices

vn 0.0000 1.0000 0.0000
vn 0.0000 1.0000 0.0000
vn -0.0000 1.0000 0.0000
vn -0.0000 1.0000 0.0000
vn -0.0000 1.0000 0.0000
vn 0.0000 1.0000 0.0000
vn -0.0484 0.0000 0.9988
vn -0.0484 0.0000 0.9988
vn -0.0484 0.0000 0.9988
vn -0.0484 0.0000 0.9988
vn -0.0484 0.0000 0.9988
vn -0.0484 0.0000 0.9988
vn 1.0000 0.0000 -0.0000
vn 1.0000 0.0000 -0.0000
vn 1.0000 0.0000 -0.0000
vn 1.0000 0.0000 -0.0000
vn 1.0000 0.0000 -0.0000
vn 1.0000 0.0000 -0.0000
vn 0.0484 0.0000 -0.9988
vn 0.0484 0.0000 -0.9988
vn 0.0484 0.0000 -0.9988
vn 0.0484 0.0000 -0.9988
vn 0.0484 0.0000 -0.9988
vn 0.0484 0.0000 -0.9988
vn -1.0000 0.0000 -0.0000
vn -1.0000 0.0000 -0.0000
vn -1.0000 0.0000 -0.0000
vn -1.0000 0.0000 -0.0000
vn -1.0000 0.0000 -0.0000
vn -1.0000 0.0000 -0.0000
# 30 vertex normals

vt 0.0000 0.0000 0.0000
vt 0.3960 0.0000 0.0000
vt 0.0000 4.0821 0.0000
vt 0.3960 4.0821 0.0000
vt 0.0000 0.0000 0.0000
vt 0.3960 0.0000 0.0000
vt 0.0000 0.2114 0.0000
vt 0.3960 0.2114 0.0000
vt 0.0000 0.0000 0.0000
vt 4.0821 0.0000 0.0000
vt 0.0000 0.2114 0.0000
vt 4.0821 0.2114 0.0000
vt 0.0000 0.0000 0.0000
vt 0.3960 0.0000 0.0000
vt 0.0000 0.2114 0.0000
vt 0.3960 0.2114 0.0000
vt 0.0000 0.0000 0.0000
vt 4.0821 0.0000 0.0000
vt 0.0000 0.2114 0.0000
vt 4.0821 0.2114 0.0000
# 20 texture coords

g Box001
usemtl wire_153228214
s 4
f 31/49/85 32/50/86 33/52/87 
f 33/52/88 34/51/89 31/49/90 
s 8
f 35/53/91 36/54/92 32/56/93 
f 32/56/94 31/55/95 35/53/96 
s 16
f 36/57/97 37/58/98 33/60/99 
f 33/60/100 32/59/101 36/57/102 
s 32
f 37/61/103 38/62/104 34/64/105 
f 34/64/106 33/63/107 37/61/108 
s 64
f 38/65/109 35/66/110 31/68/111 
f 31/68/112 34/67/113 38/65/114 
# 10 faces

#
# object Box002
#

v  -4.6846 3.0152 2.9561
v  -4.2885 3.0345 2.9561
v  -4.2885 -3.9702 2.9561
v  -4.6846 -3.9894 2.9561
v  -4.6846 3.0152 3.1675
v  -4.2885 3.0345 3.1675
v  -4.2885 -3.9702 3.1675
v  -4.6846 -3.9894 3.1675
# 8 vertices

vn 0.0000 0.0000 -1.0000
vn 0.0000 0.0000 -1.0000
vn -0.0000 0.0000 -1.0000
vn -0.0000 0.0000 -1.0000
vn -0.0000 0.0000 -1.0000
vn 0.0000 0.0000 -1.0000
vn -0.0484 0.9988 -0.0000
vn -0.0484 0.9988 -0.0000
vn -0.0484 0.9988 -0.0000
vn -0.0484 0.9988 -0.0000
vn -0.0484 0.9988 -0.0000
vn -0.0484 0.9988 -0.0000
vn 1.0000 0.0000 -0.0000
vn 1.0000 0.0000 -0.0000
vn 1.0000 0.0000 -0.0000
vn 1.0000 0.0000 -0.0000
vn 1.0000 0.0000 -0.0000
vn 1.0000 0.0000 -0.0000
vn 0.0484 -0.9988 0.0000
vn 0.0484 -0.9988 0.0000
vn 0.0484 -0.9988 0.0000
vn 0.0484 -0.9988 0.0000
vn 0.0484 -0.9988 0.0000
vn 0.0484 -0.9988 0.0000
vn -1.0000 0.0000 -0.0000
vn -1.0000 0.0000 -0.0000
vn -1.0000 0.0000 -0.0000
vn -1.0000 0.0000 -0.0000
vn -1.0000 0.0000 -0.0000
vn -1.0000 0.0000 -0.0000
# 30 vertex normals

vt 0.0000 0.0000 0.0000
vt 0.3960 0.0000 0.0000
vt 0.0000 4.0821 0.0000
vt 0.3960 4.0821 0.0000
vt 0.0000 0.0000 0.0000
vt 0.3960 0.0000 0.0000
vt 0.0000 0.2114 0.0000
vt 0.3960 0.2114 0.0000
vt 0.0000 0.0000 0.0000
vt 4.0821 0.0000 0.0000
vt 0.0000 0.2114 0.0000
vt 4.0821 0.2114 0.0000
vt 0.0000 0.0000 0.0000
vt 0.3960 0.0000 0.0000
vt 0.0000 0.2114 0.0000
vt 0.3960 0.2114 0.0000
vt 0.0000 0.0000 0.0000
vt 4.0821 0.0000 0.0000
vt 0.0000 0.2114 0.0000
vt 4.0821 0.2114 0.0000
# 20 texture coords

g Box002
usemtl wire_153228214
s 4
f 39/69/115 40/70/116 41/72/117 
f 41/72/118 42/71/119 39/69/120 
s 8
f 43/73/121 44/74/122 40/76/123 
f 40/76/124 39/75/125 43/73/126 
s 16
f 44/77/127 45/78/128 41/80/129 
f 41/80/130 40/79/131 44/77/132 
s 32
f 45/81/133 46/82/134 42/84/135 
f 42/84/136 41/83/137 45/81/138 
s 64
f 46/85/139 43/86/140 39/88/141 
f 39/88/142 42/87/143 46/85/144 
# 10 faces

#
# object Box003
#

v  -4.6846 3.1998 -2.9051
v  -4.6846 -3.9200 -2.9051
v  -4.2885 -3.9200 -2.9051
v  -4.2885 3.1998 -2.9051
v  -4.6846 3.1998 -3.1165
v  -4.2885 3.1998 -3.1165
v  -4.2885 -3.9200 -3.1165
v  -4.6846 -3.9200 -3.1165
# 8 vertices

vn 0.0000 -0.0000 1.0000
vn 0.0000 -0.0000 1.0000
vn 0.0000 -0.0000 1.0000
vn 0.0000 -0.0000 1.0000
vn 0.0000 -0.0000 1.0000
vn 0.0000 -0.0000 1.0000
vn 0.0000 0.0000 -1.0000
vn 0.0000 0.0000 -1.0000
vn 0.0000 0.0000 -1.0000
vn 0.0000 0.0000 -1.0000
vn 0.0000 0.0000 -1.0000
vn 0.0000 0.0000 -1.0000
vn 0.0000 1.0000 -0.0000
vn 0.0000 1.0000 -0.0000
vn 0.0000 1.0000 -0.0000
vn 0.0000 1.0000 -0.0000
vn 0.0000 1.0000 -0.0000
vn 0.0000 1.0000 -0.0000
vn 1.0000 0.0000 -0.0000
vn 1.0000 0.0000 -0.0000
vn 1.0000 0.0000 -0.0000
vn 1.0000 0.0000 -0.0000
vn 1.0000 0.0000 -0.0000
vn 1.0000 0.0000 -0.0000
vn 0.0000 -1.0000 0.0000
vn 0.0000 -1.0000 0.0000
vn 0.0000 -1.0000 0.0000
vn 0.0000 -1.0000 0.0000
vn 0.0000 -1.0000 0.0000
vn 0.0000 -1.0000 0.0000
vn -1.0000 0.0000 -0.0000
vn -1.0000 0.0000 -0.0000
vn -1.0000 0.0000 -0.0000
vn -1.0000 0.0000 -0.0000
vn -1.0000 0.0000 -0.0000
vn -1.0000 0.0000 -0.0000
# 36 vertex normals

vt 1.0000 0.0000 0.0000
vt 0.6040 0.0000 0.0000
vt 1.0000 4.0821 0.0000
vt 0.6040 4.0821 0.0000
vt 0.0000 0.0000 0.0000
vt 0.3960 0.0000 0.0000
vt 0.0000 4.0821 0.0000
vt 0.3960 4.0821 0.0000
vt 0.0000 0.0000 0.0000
vt 0.3960 0.0000 0.0000
vt 0.0000 0.2114 0.0000
vt 0.3960 0.2114 0.0000
vt 0.0000 0.0000 0.0000
vt 4.0821 0.0000 0.0000
vt 0.0000 0.2114 0.0000
vt 4.0821 0.2114 0.0000
vt 0.0000 0.0000 0.0000
vt 0.3960 0.0000 0.0000
vt 0.0000 0.2114 0.0000
vt 0.3960 0.2114 0.0000
vt 0.0000 0.0000 0.0000
vt 4.0821 0.0000 0.0000
vt 0.0000 0.2114 0.0000
vt 4.0821 0.2114 0.0000
# 24 texture coords

g Box003
usemtl wire_153228214
s 2
f 47/89/145 48/91/146 49/92/147 
f 49/92/148 50/90/149 47/89/150 
s 4
f 51/93/151 52/94/152 53/96/153 
f 53/96/154 54/95/155 51/93/156 
s 8
f 47/97/157 50/98/158 52/100/159 
f 52/100/160 51/99/161 47/97/162 
s 16
f 50/101/163 49/102/164 53/104/165 
f 53/104/166 52/103/167 50/101/168 
s 32
f 49/105/169 48/106/170 54/108/171 
f 54/108/172 53/107/173 49/105/174 
s 64
f 48/109/175 47/110/176 51/112/177 
f 51/112/178 54/111/179 48/109/180 
# 12 faces

