# Max2Obj Version 4.0 Mar 10th, 2001
#
# object objobjobjRegroup09 to come ...
#
v  5.000001 4.000535 -4.999998
v  -5.500000 4.000197 5.000000
v  -5.499999 4.000535 -5.000000
v  5.000000 4.000197 5.000002
v  5.000001 5.000535 -4.999998
v  -5.750000 5.000197 5.000000
v  -5.749999 5.000535 -5.000000
v  5.000000 5.000197 5.000002
v  -5.000001 -4.999803 5.000000
v  -5.000000 -4.999465 -5.000000
v  5.000000 -3.999466 -4.999999
v  -5.000001 -3.999801 5.000000
v  -5.000000 -3.999465 -5.000000
v  4.999999 -3.999803 5.000001
v  -4.500001 -3.999801 5.000000
v  -3.500001 -3.999465 5.000000
v  -3.499999 -3.999465 -5.000000
v  -4.500000 -3.999465 -5.000000
v  -4.500000 4.000197 5.000000
v  -3.500001 4.000534 5.000001
v  -3.499999 4.000535 -4.999999
v  -4.499999 4.000535 -5.000000
v  -3.500000 -1.999465 -3.000000
v  -4.500000 -1.999465 -3.000000
v  -3.499999 3.000535 -2.999999
v  -4.500000 3.000535 -2.999999
v  -3.500001 -1.999466 3.000000
v  -4.500000 -1.999466 3.000000
v  -3.500000 3.000534 3.000001
v  -4.500000 3.000534 3.000001
# 30 vertices

vt  0.222813 0.954531 0.000000
vt  0.761246 0.980472 0.000000
vt  0.406558 0.980472 0.000000
vt  0.761246 0.696722 0.000000
vt  0.406558 0.696722 0.000000
vt  0.477496 0.909535 0.000000
vt  0.477496 0.732191 0.000000
vt  0.690308 0.909535 0.000000
vt  0.690308 0.732191 0.000000
vt  0.010000 0.803128 0.000000
vt  0.364688 0.803117 0.000000
vt  0.010000 0.767660 0.000000
vt  0.364688 0.767648 0.000000
vt  0.785382 0.424293 0.000000
vt  0.785382 0.388824 0.000000
vt  0.962726 0.424293 0.000000
vt  0.962726 0.388824 0.000000
vt  0.778159 0.010000 0.000000
vt  0.778159 0.045469 0.000000
vt  0.955502 0.010000 0.000000
vt  0.955502 0.045469 0.000000
vt  0.010000 0.010000 0.000000
vt  0.391289 0.364688 0.000000
vt  0.391289 0.010000 0.000000
vt  0.010000 0.364688 0.000000
vt  0.010000 0.743512 0.000000
vt  0.382422 0.388824 0.000000
vt  0.382422 0.743512 0.000000
vt  0.010000 0.388824 0.000000
vt  0.406558 0.672586 0.000000
vt  0.761246 0.672574 0.000000
vt  0.406558 0.388836 0.000000
vt  0.761246 0.388824 0.000000
vt  0.690308 0.601636 0.000000
vt  0.690308 0.424293 0.000000
vt  0.477496 0.601637 0.000000
vt  0.477496 0.424293 0.000000
vt  0.770113 0.364688 0.000000
vt  0.415425 0.010000 0.000000
vt  0.415425 0.364688 0.000000
vt  0.770113 0.010000 0.000000
vt  0.010000 0.886881 0.000000
vt  0.010000 0.922350 0.000000
vt  0.222813 0.886881 0.000000
vt  0.222813 0.922350 0.000000
vt  0.010000 0.862745 0.000000
vt  0.364688 0.862733 0.000000
vt  0.010000 0.827276 0.000000
vt  0.364688 0.827264 0.000000
vt  0.222813 0.990000 0.000000
vt  0.010000 0.954531 0.000000
vt  0.010000 0.990000 0.000000
# 52 texture vertices

vn  0.000000 -1.000000 -0.000034
vn  -0.615406 -0.788210 -0.000027
vn  -0.615419 -0.788200 -0.000027
vn  0.000000 -1.000000 -0.000034
vn  -0.000000 1.000000 0.000034
vn  -0.788214 0.615402 0.000021
vn  -0.788197 0.615423 0.000021
vn  -0.000000 1.000000 0.000034
vn  -1.000000 0.000000 -0.000000
vn  -1.000000 0.000000 -0.000000
vn  0.000000 1.000000 0.000034
vn  -0.707114 0.707099 0.000024
vn  -0.707099 0.707114 0.000024
vn  0.000000 1.000000 0.000034
vn  -1.000000 0.000000 -0.000000
vn  1.000000 0.000000 0.000000
vn  1.000000 0.000000 0.000000
vn  -1.000000 0.000000 -0.000000
vn  -1.000000 0.000000 -0.000000
vn  1.000000 0.000000 0.000000
vn  1.000000 0.000000 0.000000
vn  -1.000000 0.000000 -0.000000
vn  0.904534 0.301511 0.301512
vn  -0.904534 0.301511 0.301511
vn  0.904534 -0.301511 0.301511
vn  -0.904534 -0.301511 0.301511
vn  0.904534 0.301512 -0.301511
vn  -0.904534 0.301512 -0.301511
vn  0.904534 -0.301511 -0.301511
vn  -0.904534 -0.301511 -0.301511
# 30 vertex normals

g objobjobjRegroup09
s 16
f 6/48/6 7/49/7 2/46/2
f 2/46/2 7/49/7 3/47/3
f 12/12/12 13/13/13 9/10/9
f 9/10/9 13/13/13 10/11/10
f 6/23/6 8/25/8 5/22/5
f 5/22/5 7/24/7 6/23/6
f 2/27/2 3/28/3 1/26/1
f 1/26/1 4/29/4 2/27/2
f 12/39/12 14/41/14 11/38/11
f 11/38/11 13/40/13 12/39/12
f 25/20/25 26/21/26 23/18/23
f 24/19/24 23/18/23 26/21/26
f 27/14/27 30/17/30 29/16/29
f 30/17/30 27/14/27 28/15/28
f 24/50/24 28/52/28 27/51/27
f 27/51/27 23/1/23 24/50/24
f 29/44/29 30/45/30 26/43/26
f 26/43/26 25/42/25 29/44/29
f 18/31/18 15/30/15 28/36/28
f 28/36/28 24/34/24 18/31/18
f 18/31/18 24/34/24 22/33/22
f 22/33/22 24/34/24 26/35/26
f 26/35/26 30/37/30 19/32/19
f 19/32/19 22/33/22 26/35/26
f 28/36/28 15/30/15 19/32/19
f 19/32/19 30/37/30 28/36/28
f 27/8/27 29/9/29 20/4/20
f 20/4/20 16/2/16 27/8/27
f 27/8/27 16/2/16 17/3/17
f 17/3/17 23/6/23 27/8/27
f 23/6/23 17/3/17 21/5/21
f 21/5/21 25/7/25 23/6/23
f 25/7/25 21/5/21 20/4/20
f 20/4/20 29/9/29 25/7/25
# 34 faces

g
