# Max2Obj Version 4.0 Mar 10th, 2001
#
# object objobjDuplicate03 to come ...
#
v  -4.999998 -3.000000 5.000000
v  5.000002 -2.999466 -5.000000
v  -4.999998 -3.000000 -5.000000
v  4.999998 -2.999466 5.000000
v  -4.999998 4.500198 -4.999998
v  5.000002 4.500534 5.000002
v  -5.000002 4.500198 5.000002
v  5.000002 4.500534 -4.999998
v  2.199999 -1.808826 -1.104919
v  7.799997 -1.808830 1.104919
v  2.199999 -1.808830 1.104919
v  7.799997 -1.808826 -1.104919
v  7.799997 -1.480762 -1.104919
v  7.799997 -1.480759 1.104919
v  2.199999 -1.480762 -1.104919
v  2.199999 -1.480759 1.104919
v  2.999994 -3.044697 -0.396889
v  2.999994 -1.738552 -0.805153
v  2.999994 -3.044701 0.396889
v  2.999994 -1.738548 0.805153
v  2.399996 -3.044697 -0.396889
v  2.400000 -3.044701 0.396889
v  2.399996 -1.738552 -0.805153
v  2.399996 -1.738548 0.805153
v  7.000002 -3.044701 0.396889
v  7.000002 -1.738552 -0.805153
v  7.000002 -3.044697 -0.396889
v  7.000002 -1.738548 0.805153
v  7.600000 -1.738552 -0.805153
v  7.600000 -3.044701 0.396889
v  7.600000 -3.044697 -0.396889
v  7.600000 -1.738548 0.805153
v  -7.800001 -1.808826 -1.104919
v  -2.200003 -1.808830 1.104919
v  -7.800001 -1.808830 1.104919
v  -2.200003 -1.808826 -1.104919
v  -2.200003 -1.480762 -1.104919
v  -2.200003 -1.480759 1.104919
v  -7.800001 -1.480762 -1.104919
v  -7.800001 -1.480759 1.104919
v  -7.000006 -3.044697 -0.396889
v  -7.000006 -1.738552 -0.805153
v  -7.000006 -3.044701 0.396889
v  -7.000006 -1.738548 0.805153
v  -7.600004 -3.044697 -0.396889
v  -7.600000 -3.044701 0.396889
v  -7.600004 -1.738552 -0.805153
v  -7.600004 -1.738548 0.805153
v  -2.999998 -3.044701 0.396889
v  -2.999998 -1.738552 -0.805153
v  -2.999998 -3.044697 -0.396889
v  -2.999998 -1.738548 0.805153
v  -2.400000 -1.738552 -0.805153
v  -2.400000 -3.044701 0.396889
v  -2.400000 -3.044697 -0.396889
v  -2.400000 -1.738548 0.805153
# 56 vertices

vt  0.487940 0.487940 0.000000
vt  0.010000 0.010000 0.000000
vt  0.487940 0.010000 0.000000
vt  0.010000 0.487940 0.000000
vt  0.662467 0.851135 0.000000
vt  0.515492 0.913561 0.000000
vt  0.512060 0.349075 0.000000
vt  0.597063 0.851135 0.000000
vt  0.909444 0.285154 0.000000
vt  0.803827 0.285154 0.000000
vt  0.803827 0.269475 0.000000
vt  0.909444 0.269475 0.000000
vt  0.893364 0.787214 0.000000
vt  0.787747 0.787215 0.000000
vt  0.893364 0.771535 0.000000
vt  0.787747 0.771535 0.000000
vt  0.495980 0.827014 0.000000
vt  0.763626 0.827014 0.000000
vt  0.763626 0.811335 0.000000
vt  0.495980 0.811335 0.000000
vt  0.495980 0.787215 0.000000
vt  0.763626 0.787215 0.000000
vt  0.495980 0.771535 0.000000
vt  0.763626 0.771535 0.000000
vt  0.010000 0.512060 0.000000
vt  0.487940 0.990000 0.000000
vt  0.010000 0.990000 0.000000
vt  0.487940 0.512060 0.000000
vt  0.823339 0.072426 0.000000
vt  0.803827 0.010000 0.000000
vt  0.861277 0.072426 0.000000
vt  0.880790 0.010000 0.000000
vt  0.845197 0.574486 0.000000
vt  0.807259 0.574486 0.000000
vt  0.864709 0.512060 0.000000
vt  0.787747 0.512060 0.000000
vt  0.512060 0.324954 0.000000
vt  0.779707 0.324954 0.000000
vt  0.779707 0.309275 0.000000
vt  0.512060 0.309275 0.000000
vt  0.512060 0.285154 0.000000
vt  0.779707 0.285154 0.000000
vt  0.512060 0.269475 0.000000
vt  0.779707 0.269475 0.000000
vt  0.512060 0.139737 0.000000
vt  0.512060 0.245354 0.000000
vt  0.779707 0.139737 0.000000
vt  0.779707 0.245354 0.000000
vt  0.763626 0.747414 0.000000
vt  0.495980 0.641797 0.000000
vt  0.763626 0.641797 0.000000
vt  0.495980 0.747414 0.000000
vt  0.803827 0.139737 0.000000
vt  0.861277 0.202164 0.000000
vt  0.823339 0.202163 0.000000
vt  0.880790 0.139737 0.000000
vt  0.908342 0.704224 0.000000
vt  0.965793 0.641798 0.000000
vt  0.946280 0.704224 0.000000
vt  0.888830 0.641797 0.000000
vt  0.613144 0.438588 0.000000
vt  0.675569 0.438588 0.000000
vt  0.613144 0.409911 0.000000
vt  0.675569 0.409911 0.000000
vt  0.904910 0.038676 0.000000
vt  0.967336 0.038676 0.000000
vt  0.904910 0.010000 0.000000
vt  0.967336 0.010000 0.000000
vt  0.512060 0.010000 0.000000
vt  0.512060 0.115617 0.000000
vt  0.779707 0.010000 0.000000
vt  0.779707 0.115617 0.000000
vt  0.763626 0.617677 0.000000
vt  0.495980 0.512060 0.000000
vt  0.763626 0.512060 0.000000
vt  0.495980 0.617677 0.000000
vt  0.800245 0.866815 0.000000
vt  0.694628 0.866814 0.000000
vt  0.694628 0.851135 0.000000
vt  0.800245 0.851135 0.000000
vt  0.816326 0.364754 0.000000
vt  0.710709 0.364754 0.000000
vt  0.816326 0.349075 0.000000
vt  0.710709 0.349075 0.000000
vt  0.659489 0.911972 0.000000
vt  0.597063 0.911972 0.000000
vt  0.659489 0.940648 0.000000
vt  0.597063 0.940648 0.000000
vt  0.904910 0.139737 0.000000
vt  0.967336 0.139737 0.000000
vt  0.904910 0.168413 0.000000
vt  0.967336 0.168414 0.000000
vt  0.613144 0.349075 0.000000
vt  0.678548 0.349075 0.000000
vt  0.613144 0.377751 0.000000
vt  0.678548 0.377751 0.000000
vt  0.512060 0.464297 0.000000
vt  0.577465 0.464297 0.000000
vt  0.512060 0.435621 0.000000
vt  0.577465 0.435621 0.000000
vt  0.908342 0.574486 0.000000
vt  0.888830 0.512060 0.000000
vt  0.946280 0.574486 0.000000
vt  0.965793 0.512060 0.000000
vt  0.845197 0.704224 0.000000
vt  0.807259 0.704224 0.000000
vt  0.864709 0.641798 0.000000
vt  0.787747 0.641797 0.000000
vt  0.495980 0.966358 0.000000
vt  0.561384 0.966358 0.000000
vt  0.495980 0.937681 0.000000
vt  0.561384 0.937681 0.000000
vt  0.572943 0.851135 0.000000
vt  0.553430 0.913561 0.000000
vt  0.495980 0.851135 0.000000
vt  0.569511 0.411501 0.000000
vt  0.531573 0.411501 0.000000
vt  0.589023 0.349075 0.000000
vt  0.662467 0.879811 0.000000
vt  0.597063 0.879811 0.000000
# 120 texture vertices

vn  -0.000053 1.000000 -0.000000
vn  -0.000053 1.000000 -0.000000
vn  -0.000053 1.000000 0.000000
vn  -0.000053 1.000000 -0.000000
vn  0.000034 -1.000000 0.000000
vn  0.000034 -1.000000 0.000000
vn  0.000034 -1.000000 0.000000
vn  0.000034 -1.000000 0.000000
vn  -0.577350 -0.577350 -0.577351
vn  0.577350 -0.577351 0.577350
vn  -0.577350 -0.577351 0.577350
vn  0.577350 -0.577350 -0.577351
vn  0.577350 0.577350 -0.577351
vn  0.577350 0.577351 0.577350
vn  -0.577350 0.577350 -0.577351
vn  -0.577350 0.577351 0.577350
vn  0.766340 -0.191662 -0.613179
vn  0.628076 -0.232152 -0.742715
vn  0.766338 -0.191662 0.613182
vn  0.628075 -0.232151 0.742717
vn  -0.766342 -0.191662 -0.613177
vn  -0.766336 -0.191663 0.613183
vn  -0.628076 -0.232153 -0.742715
vn  -0.628075 -0.232152 0.742716
vn  -0.766338 -0.191662 0.613182
vn  -0.628076 -0.232152 -0.742715
vn  -0.766340 -0.191662 -0.613179
vn  -0.628075 -0.232151 0.742717
vn  0.628076 -0.232152 -0.742715
vn  0.766338 -0.191662 0.613182
vn  0.766340 -0.191662 -0.613179
vn  0.628075 -0.232151 0.742717
vn  -0.577350 -0.577350 -0.577351
vn  0.577350 -0.577351 0.577350
vn  -0.577350 -0.577351 0.577350
vn  0.577350 -0.577350 -0.577351
vn  0.577350 0.577350 -0.577350
vn  0.577350 0.577351 0.577350
vn  -0.577350 0.577350 -0.577351
vn  -0.577350 0.577351 0.577350
vn  0.766340 -0.191662 -0.613179
vn  0.628076 -0.232152 -0.742715
vn  0.766338 -0.191662 0.613182
vn  0.628075 -0.232151 0.742717
vn  -0.766342 -0.191662 -0.613177
vn  -0.766336 -0.191663 0.613183
vn  -0.628076 -0.232153 -0.742715
vn  -0.628075 -0.232153 0.742716
vn  -0.766338 -0.191662 0.613182
vn  -0.628076 -0.232152 -0.742715
vn  -0.766340 -0.191662 -0.613179
vn  -0.628075 -0.232151 0.742717
vn  0.628076 -0.232152 -0.742715
vn  0.766338 -0.191662 0.613182
vn  0.766340 -0.191662 -0.613179
vn  0.628075 -0.232151 0.742717
# 56 vertex normals

g objobjDuplicate03
s 4
f 1/25/1 2/26/2 3/27/3
f 2/26/2 1/25/1 4/28/4
f 5/1/5 6/2/6 7/3/7
f 6/2/6 5/1/5 8/4/8
f 9/49/9 10/50/10 11/51/11
f 9/49/9 12/52/12 10/50/10
f 12/10/12 13/11/13 10/9/10
f 14/12/14 10/9/10 13/11/13
f 9/13/9 11/14/11 15/15/15
f 16/16/16 15/15/15 11/14/11
f 10/21/10 14/23/14 11/22/11
f 16/24/16 11/22/11 14/23/14
f 9/17/9 13/19/13 12/18/12
f 9/17/9 15/20/15 13/19/13
f 13/45/13 15/47/15 14/46/14
f 16/48/16 14/46/14 15/47/15
f 17/29/17 18/30/18 19/31/19
f 20/32/20 19/31/19 18/30/18
f 21/33/21 22/34/22 23/35/23
f 24/36/24 23/35/23 22/34/22
f 19/93/19 20/94/20 22/95/22
f 24/96/24 22/95/22 20/94/20
f 21/63/21 18/62/18 17/61/17
f 21/63/21 23/64/23 18/62/18
f 25/57/25 26/58/26 27/59/27
f 26/58/26 25/57/25 28/60/28
f 29/53/29 30/54/30 31/55/31
f 30/54/30 29/53/29 32/56/32
f 30/99/30 28/98/28 25/97/25
f 28/98/28 30/99/30 32/100/32
f 27/86/27 26/85/26 31/88/31
f 26/85/26 29/87/29 31/88/31
f 33/73/33 34/74/34 35/75/35
f 33/73/33 36/76/36 34/74/34
f 36/78/36 37/79/37 34/77/34
f 38/80/38 34/77/34 37/79/37
f 33/81/33 35/82/35 39/83/39
f 40/84/40 39/83/39 35/82/35
f 34/41/34 38/43/38 35/42/35
f 40/44/40 35/42/35 38/43/38
f 33/37/33 37/39/37 36/38/36
f 33/37/33 39/40/39 37/39/37
f 37/69/37 39/71/39 38/70/38
f 40/72/40 38/70/38 39/71/39
f 41/101/41 42/102/42 43/103/43
f 44/104/44 43/103/43 42/102/42
f 45/105/45 46/106/46 47/107/47
f 48/108/48 47/107/47 46/106/46
f 43/89/43 44/90/44 46/91/46
f 48/92/48 46/91/46 44/90/44
f 45/111/45 42/110/42 41/109/41
f 45/111/45 47/112/47 42/110/42
f 49/6/49 50/113/50 51/114/51
f 50/113/50 49/6/49 52/115/52
f 53/7/53 54/116/54 55/117/55
f 54/116/54 53/7/53 56/118/56
f 54/67/54 52/66/52 49/65/49
f 52/66/52 54/67/54 56/68/56
f 51/8/51 50/5/50 55/120/55
f 50/5/50 53/119/53 55/120/55
# 60 faces

g
