# Max2Obj Version 4.0 Mar 10th, 2001
#
# object objobjDuplicate12 to come ...
#
v  5.000000 -4.999466 5.000000
v  3.000000 -4.499466 5.000000
v  5.000000 4.700523 5.000000
v  2.187500 4.263023 5.000000
v  -0.000001 3.063034 5.000000
v  -2.000000 1.000534 5.000000
v  3.000000 -2.499466 5.000000
v  -2.000000 -2.499466 5.000000
v  -5.000000 -4.499466 -3.000000
v  -5.000000 -4.999466 -5.000000
v  -5.000000 4.700539 -5.000000
v  -5.000000 4.263023 -2.187500
v  -5.000000 3.063034 0.000000
v  -5.000000 1.000534 2.000000
v  -5.000000 -2.499466 2.000000
v  -5.000000 -2.499466 -3.000000
v  2.035534 -4.999466 -2.035534
v  0.621320 -4.499466 -0.621320
v  2.035534 4.700523 -2.035534
v  0.046796 4.263023 -0.046796
v  -1.500000 3.063034 1.500000
v  -2.914214 1.000534 2.914213
v  0.621320 -2.499466 -0.621320
v  -2.914214 -2.499466 2.914213
v  5.000000 -4.999000 -5.000000
v  5.000000 4.701000 -5.000000
# 26 vertices

vt  0.555395 0.407251 0.000000
vt  0.673784 0.470920 0.000000
vt  0.547465 0.737599 0.000000
vt  0.669026 0.669128 0.000000
vt  0.504376 0.557772 0.000000
vt  0.643841 0.561441 0.000000
vt  0.495624 0.010000 0.000000
vt  0.495624 0.990000 0.000000
vt  0.797165 0.697740 0.000000
vt  0.700040 0.697740 0.000000
vt  0.797165 0.970725 0.000000
vt  0.700040 0.970725 0.000000
vt  0.797165 0.680236 0.000000
vt  0.700040 0.680236 0.000000
vt  0.797165 0.407251 0.000000
vt  0.700040 0.407251 0.000000
vt  0.892875 0.010000 0.000000
vt  0.650063 0.010000 0.000000
vt  0.504376 0.155687 0.000000
vt  0.504376 0.398499 0.000000
vt  0.777361 0.282985 0.000000
vt  0.605667 0.111291 0.000000
vt  0.359042 0.990000 0.000000
vt  0.252812 0.990000 0.000000
vt  0.010000 0.504376 0.000000
vt  0.010000 0.640958 0.000000
vt  0.010000 0.747188 0.000000
vt  0.351662 0.648338 0.000000
vt  0.255084 0.744916 0.000000
vt  0.179968 0.820032 0.000000
vt  0.495624 0.504376 0.000000
vt  0.010000 0.010000 0.000000
vt  0.179968 0.010000 0.000000
vt  0.010000 0.111291 0.000000
vt  0.179968 0.111291 0.000000
vt  0.010000 0.221334 0.000000
vt  0.179968 0.221334 0.000000
vt  0.010000 0.120043 0.000000
vt  0.179968 0.120043 0.000000
vt  0.398499 0.010000 0.000000
vt  0.010000 0.398499 0.000000
vt  0.010000 0.495624 0.000000
vt  0.351662 0.351662 0.000000
vt  0.282985 0.282985 0.000000
vt  0.495624 0.495624 0.000000
# 45 texture vertices

vn  0.181479 0.980398 -0.076719
vn  0.682149 0.671827 -0.288654
vn  0.114901 -0.992197 -0.048414
vn  0.279541 -0.952811 -0.118355
vn  0.563441 -0.790367 -0.240528
vn  0.845518 -0.386609 -0.368284
vn  0.738467 0.597512 -0.312485
vn  0.568542 0.784003 -0.249196
vn  0.288378 0.671984 -0.682111
vn  0.076553 0.980373 -0.181682
vn  0.048414 -0.992196 -0.114905
vn  0.118671 -0.952897 -0.279114
vn  0.242355 -0.790287 -0.562770
vn  0.370600 -0.384367 -0.845528
vn  0.249196 0.784003 -0.568543
vn  0.312485 0.597512 -0.738467
vn  0.065337 0.995726 -0.065276
vn  0.506449 0.698033 -0.506221
vn  0.041253 -0.998297 -0.041254
vn  0.200419 -0.958942 -0.200656
vn  0.411782 -0.812243 -0.413155
vn  0.644362 -0.408791 -0.646288
vn  0.548260 0.631523 -0.548260
vn  0.425351 0.798844 -0.425352
vn  -0.000079 1.000000 0.000079
vn  0.000080 -1.000000 -0.000081
# 26 vertex normals

g objobjDuplicate12
s 1
f 17/43/17 10/42/10 9/41/9
f 9/41/9 18/44/18 17/43/17
f 18/15/18 9/13/9 16/14/16
f 16/14/16 23/16/23 18/15/18
f 23/21/23 16/20/16 15/19/15
f 15/19/15 24/22/24 23/21/23
f 24/39/24 15/37/15 14/36/14
f 22/38/22 24/39/24 14/36/14
f 14/4/14 13/3/13 22/6/22
f 22/6/22 13/3/13 21/5/21
f 21/30/21 13/27/13 12/26/12
f 12/26/12 20/29/20 21/30/21
f 19/28/19 20/29/20 12/26/12
f 12/26/12 11/25/11 19/28/19
f 1/7/1 17/43/17 18/44/18
f 2/40/2 1/7/1 18/44/18
f 18/11/18 23/12/23 2/9/2
f 2/9/2 23/12/23 7/10/7
f 7/17/7 23/21/23 24/22/24
f 24/22/24 8/18/8 7/17/7
f 8/33/8 24/35/24 22/34/22
f 6/32/6 8/33/8 22/34/22
f 22/6/22 21/5/21 6/2/6
f 6/2/6 21/5/21 5/1/5
f 5/24/5 21/30/21 20/29/20
f 4/23/4 5/24/5 20/29/20
f 3/8/3 4/23/4 19/28/19
f 19/28/19 4/23/4 20/29/20
f 17/43/17 1/7/1 25/45/25
f 25/45/25 10/42/10 17/43/17
f 3/8/3 19/28/19 26/31/26
f 19/28/19 11/25/11 26/31/26
# 32 faces

g
